<?xml version="1.0" standalone="no"?>
<!DOCTYPE svg PUBLIC "-//W3C//DTD SVG 1.1//EN" "http://www.w3.org/Graphics/SVG/1.1/DTD/svg11.dtd" >
<svg xmlns="http://www.w3.org/2000/svg" xmlns:xlink="http://www.w3.org/1999/xlink" version="1.1">
<metadata>
Created by FontForge 20161003 at Tue Nov 13 11:15:44 2018
 By Dominique Fober
Copyright (c) 1996-2001 Keith A. Hamel, 2009-2018 Grame. All rights reserved. To be used with GUIDO Engine. Version 3.6, Nov. 12 2018.
</metadata>
<defs>
<font id="Guido2" horiz-adv-x="512" >
  <font-face 
    font-family="Guido2"
    font-weight="400"
    font-stretch="normal"
    units-per-em="1024"
    panose-1="0 0 4 0 0 0 0 0 0 0"
    ascent="819"
    descent="-205"
    x-height="74"
    cap-height="187"
    bbox="-261 -1236 1477.57 1315"
    underline-thickness="19"
    underline-position="-179"
    unicode-range="U+0003-00FF"
  />
<missing-glyph 
d="M65 0v819h384v-819h-384zM128 65h256v691h-256v-691z" />
    <glyph glyph-name=".notdef" 
d="M65 0v819h384v-819h-384zM128 65h256v691h-256v-691z" />
    <glyph glyph-name=".null" horiz-adv-x="0" 
 />
    <glyph glyph-name="nonmarkingreturn" horiz-adv-x="1024" 
 />
    <glyph glyph-name="uni0003" 
d="M65 0v819h384v-819h-384zM128 65h256v691h-256v-691z" />
    <glyph glyph-name="uni0004" 
d="M65 0v819h384v-819h-384zM128 65h256v691h-256v-691z" />
    <glyph glyph-name="uni0005" 
d="M65 0v819h384v-819h-384zM128 65h256v691h-256v-691z" />
    <glyph glyph-name="uni0006" 
d="M65 0v819h384v-819h-384zM128 65h256v691h-256v-691z" />
    <glyph glyph-name="uni0007" 
d="M65 0v819h384v-819h-384zM128 65h256v691h-256v-691z" />
    <glyph glyph-name="uni0008" 
d="M65 0v819h384v-819h-384zM128 65h256v691h-256v-691z" />
    <glyph glyph-name="uni0009" unicode="&#x9;" 
d="M65 0v819h384v-819h-384zM128 65h256v691h-256v-691z" />
    <glyph glyph-name="uni000A" unicode="&#xa;" 
d="M65 0v819h384v-819h-384zM128 65h256v691h-256v-691z" />
    <glyph glyph-name="uni000B" 
d="M65 0v819h384v-819h-384zM128 65h256v691h-256v-691z" />
    <glyph glyph-name="uni000C" 
d="M65 0v819h384v-819h-384zM128 65h256v691h-256v-691z" />
    <glyph glyph-name="uni000D" unicode="&#xd;" 
d="M65 0v819h384v-819h-384zM128 65h256v691h-256v-691z" />
    <glyph glyph-name="uni000E" 
d="M65 0v819h384v-819h-384zM128 65h256v691h-256v-691z" />
    <glyph glyph-name="uni000F" 
d="M65 0v819h384v-819h-384zM128 65h256v691h-256v-691z" />
    <glyph glyph-name="uni0010" 
d="M65 0v819h384v-819h-384zM128 65h256v691h-256v-691z" />
    <glyph glyph-name="uni0011" 
d="M65 0v819h384v-819h-384zM128 65h256v691h-256v-691z" />
    <glyph glyph-name="uni0012" 
d="M65 0v819h384v-819h-384zM128 65h256v691h-256v-691z" />
    <glyph glyph-name="uni0013" 
d="M65 0v819h384v-819h-384zM128 65h256v691h-256v-691z" />
    <glyph glyph-name="uni0014" 
d="M65 0v819h384v-819h-384zM128 65h256v691h-256v-691z" />
    <glyph glyph-name="uni0015" 
d="M65 0v819h384v-819h-384zM128 65h256v691h-256v-691z" />
    <glyph glyph-name="uni0016" 
d="M65 0v819h384v-819h-384zM128 65h256v691h-256v-691z" />
    <glyph glyph-name="uni0017" 
d="M65 0v819h384v-819h-384zM128 65h256v691h-256v-691z" />
    <glyph glyph-name="uni0018" 
d="M65 0v819h384v-819h-384zM128 65h256v691h-256v-691z" />
    <glyph glyph-name="uni0019" 
d="M65 0v819h384v-819h-384zM128 65h256v691h-256v-691z" />
    <glyph glyph-name="uni001A" 
d="M65 0v819h384v-819h-384zM128 65h256v691h-256v-691z" />
    <glyph glyph-name="uni001B" 
d="M65 0v819h384v-819h-384zM128 65h256v691h-256v-691z" />
    <glyph glyph-name="uni001C" 
d="M65 0v819h384v-819h-384zM128 65h256v691h-256v-691z" />
    <glyph glyph-name="uni001D" 
d="M65 0v819h384v-819h-384zM128 65h256v691h-256v-691z" />
    <glyph glyph-name="uni001E" 
d="M65 0v819h384v-819h-384zM128 65h256v691h-256v-691z" />
    <glyph glyph-name="uni001F" 
d="M65 0v819h384v-819h-384zM128 65h256v691h-256v-691z" />
    <glyph glyph-name="space" unicode=" " horiz-adv-x="102" 
 />
    <glyph glyph-name="exclam" unicode="!" horiz-adv-x="214" 
d="M131 267l-39 -20v-2l28 4q40 0 67.5 -25.5t27.5 -65.5q0 -57 -53 -107.5t-111 -50.5q-17 0 -33 10q-18 11 -18 29q0 22 19 21q12 0 25 -19q9 -14 24 -14q41 0 70.5 31.5t29.5 72.5q0 90 -72 90q-22 0 -48 -8.5t-25 -8.5q-5 0 -6 6q0 6 38 29q35 22 50 32q32 25 32 63
q0 37 -42 37q-25 0 -41 -25q-19 -24 -27 -23q-5 0 -5 9q0 16 26.5 34.5t59.5 18.5q31 0 52 -13q25 -16 24 -45q0 -32 -53 -60z" />
    <glyph glyph-name="quotedbl" unicode="&#x22;" horiz-adv-x="144" 
d="M0 -198l145 198l-145 199l-146 -199zM-81 43l110 -148l52 69l-112 147z" />
    <glyph glyph-name="numbersign" unicode="#" horiz-adv-x="217" 
d="M73 63v-146l69 17v147zM142 -356v184l-69 -17v-200h-31v191l-42 -11v107l42 11v146l-42 -11v103l42 12v199h31v-191l69 17v199h31v-192l45 12v-104l-45 -11v-146l45 11v-107l-45 -11v-191h-31z" />
    <glyph glyph-name="dollar" unicode="$" horiz-adv-x="145" 
d="M0 -198l145 198l-145 199l-146 -199z" />
    <glyph glyph-name="percent" unicode="%" horiz-adv-x="526" 
d="M236 -63l-182 -281h-54l193 300q-87 49 -126 87q-62 61 -63 135q0 61 43 113.5t104 52.5q45 0 79 -21q39 -25 44 -66q3 -26 -14 -46t-43 -18q-48 2 -56 53q-7 44 -42 44q-20 0 -37 -21t-17 -51q0 -53 71 -98q59 -32 120 -64l185 281h57l-198 -300q87 -50 125 -87
q62 -60 62 -134q0 -62 -42.5 -114.5t-102.5 -52.5q-45 0 -80 21q-40 25 -45 66q-3 26 15 45.5t43 18.5q48 -2 56 -53q6 -44 43 -44q20 0 36.5 21t16.5 51q0 53 -72 98q-59 32 -119 64zM427 86q0 20 14.5 35t35.5 15q20 0 35 -15t15 -35t-14.5 -34.5t-35.5 -14.5
q-22 0 -36 14.5t-14 34.5zM4 -93q0 20 14.5 34.5t35.5 14.5q20 0 35 -14.5t15 -34.5t-14.5 -35t-35.5 -15q-22 0 -36 15t-14 35z" />
    <glyph glyph-name="ampersand" unicode="&#x26;" horiz-adv-x="626" 
d="M392 390l68 -335q45 25 72.5 69t27.5 94q0 73 -48 123t-120 49zM294 834q81 70 119 131q47 78 47 169q0 32 -18.5 53t-50.5 21q-50 0 -90 -74q-34 -66 -34 -122q0 -69 27 -178zM325 689l48 -199l40 4q81 6 148.5 -70t67.5 -161q0 -77 -46 -141q-44 -60 -117 -96
q14 -63 28 -127q16 -76 16 -128q0 -82 -54.5 -133.5t-137.5 -51.5q-70 0 -123 46t-53 116q0 39 24 73q28 40 73 40q37 0 57.5 -24.5t20.5 -61.5q0 -32 -23 -56.5t-51 -24.5q-27 0 -40 8t-24 15q3 -40 50 -70q43 -27 86 -27q70 0 115.5 42t45.5 111q0 49 -15 121
q-14 58 -28 117q-47 -13 -95 -13q-140 0 -241 108q-97 105 -97 246q0 152 101 282q18 24 164 172q-16 60 -34 120q-18 71 -18 122q0 68 54 162q60 104 122 105q47 0 83 -109q30 -88 30 -146q0 -73 -53 -183.5t-124 -187.5zM427 45l-68 341q-45 -13 -75 -53t-30 -87
q0 -49 34 -77q20 -16 80 -38q-1 -5 -16 -5q-74 0 -116 53q-40 49 -40 124q0 60 45 112q40 46 100 67l-46 185q-221 -197 -221 -391q0 -96 85 -169.5t185 -73.5q43 0 83 12z" />
    <glyph glyph-name="quotesingle" unicode="'" horiz-adv-x="964" 
d="M706 209h-156l-23 -110q-20 -96 -58 -164q-53 -95 -130 -100q-31 -2 -56 18.5t-28 52.5q-4 52 42 58q19 2 34 -11.5t14 -33.5q0 -13 -27 -41q-7 -3 -5 -10t11 -7q52 0 84 134q22 106 43 214h-156l-23 -110q-20 -96 -58 -164q-54 -95 -130 -100q-31 -2 -56 18.5t-28 52.5
q-5 52 42 58q19 2 33.5 -11.5t14.5 -33.5q0 -13 -28 -41q-6 -3 -4 -10t11 -7q52 0 84 134q22 106 43 214h-64l-3 32h76q20 65 66 108q51 47 116 47q47 0 67 -44q3 -10 3 -21q0 -48 -48 -58q-14 0 -25.5 11.5t-10.5 25.5q1 20 21 33.5t19 16.5q-1 11 -24 14q-32 3 -58 -47
q-17 -32 -30 -86h159q20 65 66 108q52 47 116 47q47 0 68 -44q2 -10 2 -21q0 -48 -48 -58q-14 0 -25.5 11.5t-10.5 25.5q1 20 21 33.5t20 16.5q-2 11 -25 14q-32 3 -58 -47q-17 -32 -30 -86h160q20 65 66 108q51 47 115 47q47 0 68 -44q3 -10 3 -21q0 -48 -49 -58
q-13 0 -25 11.5t-11 25.5q2 20 21.5 33.5t19.5 16.5q-2 11 -25 14q-31 3 -58 -47q-16 -32 -30 -86h84l3 -32h-92l-24 -110q-20 -96 -58 -164q-53 -95 -130 -100q-31 -2 -56 18.5t-27 52.5q-5 52 41 58q19 2 34 -11.5t14 -33.5q0 -13 -27 -41q-6 -3 -4 -10t10 -7q53 0 84 134
q21 106 43 214z" />
    <glyph glyph-name="parenleft" unicode="(" horiz-adv-x="167" 
d="M169 7l-8 -10q-161 106 -161 289q0 174 163 274l6 -10q-60 -42 -83 -116q-15 -52 -15 -145q0 -108 11 -152q19 -77 87 -130z" />
    <glyph glyph-name="parenright" unicode=")" horiz-adv-x="167" 
d="M0 0l-6 10q61 43 84 116q15 52 15 143q0 109 -12 158q-22 80 -87 126l8 10q44 -20 90 -82q71 -92 71 -211q0 -84 -44 -155.5t-119 -114.5z" />
    <glyph glyph-name="asterisk" unicode="*" horiz-adv-x="308" 
d="M83 143q-7 -1 -22 -15.5t-29 -11.5q-31 1 -32 36q1 30 32 33q13 2 28 -12.5t23 -14.5q27 -3 27 15q0 7 -7 15t-15 7.5t-27 1.5q-28 6 -27 32q0 14 10 25.5t25 11.5q35 0 34 -35q0 -41 23 -41q4 0 9 1q14 4 15 27q-1 8 -14 19.5t-15 23.5q-7 40 35 40t34 -40
q-3 -12 -15 -23.5t-13 -19.5q0 -23 14 -27q5 -1 9 -1q20 0 22 41q2 35 36 35q14 0 23.5 -11t9.5 -26q0 -26 -25 -32q-9 0 -29 -1q-7 0 -13.5 -8t-6.5 -15q0 -17 25 -15q8 1 23 15.5t30 12.5q31 -4 30 -34q0 -33 -30 -37q-14 -2 -29 12.5t-24 15.5q-26 3 -25 -15
q0 -23 20 -24q9 1 29 0q26 -8 25 -33q0 -14 -10 -25t-23 -11q-35 0 -36 33q-1 42 -21 42q-28 0 -23 -27q1 -9 12 -21t13 -23q6 -39 -34 -39t-33 39q1 11 14 23t15 21q0 23 -15 27q-5 1 -9 1q-23 0 -23 -43q0 -13 -10 -23t-24 -10t-24.5 10.5t-10.5 25.5q0 26 27 33
q8 -1 28 0q7 0 14 8t7 16q0 18 -27 15zM155 175q-24 2 -25 -23t25 -27t25 27q1 9 -7 16.5t-18 6.5z" />
    <glyph glyph-name="plus" unicode="+" horiz-adv-x="306" 
d="M135 154h36v-136h136v-35h-136v-137h-36v137h-135v35h135v136z" />
    <glyph glyph-name="comma" unicode="," horiz-adv-x="185" 
d="M79 -66q3 -1 -20 -4q-26 -3 -43 22q-16 22 -16 46q0 35 31 55q27 16 61 17q44 0 72 -36q25 -34 22 -79q-4 -70 -56 -127q-47 -52 -111 -69l-3 18q31 10 64.5 49t33.5 73q0 6 -1 11q0 1 -4 8q-13 19 -30 16z" />
    <glyph glyph-name="hyphen" unicode="-" horiz-adv-x="306" 
d="M0 19h307v-38h-307v38z" />
    <glyph glyph-name="hyphen" unicode="&#x2010;" horiz-adv-x="306" 
d="M0 19h307v-38h-307v38z" />
    <glyph glyph-name="period" unicode="." horiz-adv-x="95" 
d="M0 1q0 20 14.5 34t33.5 14q20 0 34 -13.5t14 -34.5q0 -20 -13.5 -34t-34.5 -14q-19 0 -33.5 14t-14.5 34z" />
    <glyph glyph-name="slash" unicode="/" horiz-adv-x="551" 
d="M362 522l56 200q-47 -24 -115 -24q-31 0 -56 20t-25 50q0 56 53 67q26 5 47 -14t21 -46q0 -17 -5 -23l-2 -10q0 -7 14 -11q14 -3 21 0q33 10 62 47l55 200q-47 -24 -114 -24q-31 0 -56 20t-25 50q0 56 53 67q26 5 47 -14t21 -46q0 -17 -5 -23l-2 -10q0 -7 14 -11
q14 -3 20 0q45 14 93 87h17l-406 -1467h-35l96 347q-47 -24 -114 -24q-32 0 -56.5 20t-24.5 50q0 28 17.5 48t46.5 20q25 0 40.5 -18.5t15.5 -44.5q0 -11 -3.5 -21t-3.5 -12q2 -6 11 -6q14 -1 44.5 14t41.5 28l55 200q-47 -24 -113 -24q-32 0 -56.5 20t-24.5 50
q0 28 17.5 48t45.5 20q25 0 41 -20.5t16 -46.5q0 -8 -4 -17.5t-3 -11.5q2 -6 11 -6q15 -1 45.5 15t40.5 31l55 200q-47 -24 -115 -24q-31 0 -55.5 20t-24.5 50q0 56 53 67q26 5 46.5 -14t20.5 -46q0 -17 -5 -23l-2 -10q0 -7 15 -11q14 -3 20 0q31 9 62 47z" />
    <glyph glyph-name="zero" unicode="0" horiz-adv-x="367" 
d="M184 222q89 -1 142 -80q43 -66 43 -143q0 -78 -43 -143q-52 -79 -142 -79q-89 0 -141 79q-43 66 -43 143q0 78 43 143q52 80 141 80zM184 190q-70 0 -69 -190q0 -191 69 -191q70 0 70 191q0 190 -70 190z" />
    <glyph glyph-name="one" unicode="1" horiz-adv-x="256" 
d="M42 -214v32q33 1 44 17q8 13 8 48v214l-75 -106l-19 6q66 104 93 217h111v-331q0 -35 8 -48q11 -16 44 -17v-32h-214z" />
    <glyph glyph-name="two" unicode="2" horiz-adv-x="347" 
d="M327 -61h21q0 -161 -105 -161q-35 0 -77.5 33t-69.5 35q-26 2 -47.5 -13t-22.5 -38l-23 -2q-3 13 -3 26q0 50 52 95q16 13 96 62q84 52 85 129q1 85 -76 85q-67 0 -67 -27q0 -6 28 -23t28 -49q0 -25 -21 -43t-46 -18q-68 7 -68 67q0 54 40 88q47 38 139 38q71 0 113 -39
q37 -35 37 -86q0 -68 -39 -97q-19 -15 -89 -36q-65 -18 -96 -47v-2q19 3 38 3q54 0 105 -30q10 -6 24 -6q44 1 44 56z" />
    <glyph glyph-name="three" unicode="3" horiz-adv-x="330" 
d="M163 223q60 2 108 -25q57 -34 56 -94q-1 -34 -28 -60.5t-75 -34.5v-2q43 -4 73 -27q35 -27 35 -72q0 -68 -57 -103q-46 -28 -115 -27q-61 0 -104 20q-56 27 -56 82q0 27 19.5 47t47.5 20q27 0 45 -18t18 -45q0 -12 -7 -24.5t-14 -23.5q-4 -24 25 -26q38 -4 60.5 21.5
t22.5 64.5q0 95 -117 97v32q60 2 85 19t25 67q0 82 -69 82q-45 0 -44 -21q0 -4 18 -18.5t18 -45.5q0 -23 -18.5 -38.5t-44.5 -15.5q-27 0 -44.5 18t-17.5 45q0 56 58 84q40 20 97 22z" />
    <glyph glyph-name="four" unicode="4" horiz-adv-x="335" 
d="M177 -97h-177v34q93 88 117 277q37 -17 73 -17q38 0 77 17q-33 -58 -105 -145q-74 -90 -125 -132h140v88l110 105v-193h50v-34h-50v-20q0 -35 8 -48q10 -16 41 -17v-32h-211v32q33 1 44 17q8 13 8 48v20z" />
    <glyph glyph-name="five" unicode="5" horiz-adv-x="306" 
d="M40 -7h-28l5 221q14 -3 31 -3q14 0 46 3q29 3 46 3q15 0 38.5 -4.5t34.5 -4.5q32 0 72 28q-10 -53 -53.5 -84.5t-98.5 -31.5q-36 0 -87 11l-3 -96q52 35 113 34q65 -1 106 -35q45 -37 45 -101q0 -55 -41 -97q-50 -50 -141 -50q-46 0 -82 24q-40 26 -43 69
q-2 28 16.5 52.5t40.5 24.5q67 0 67 -67q0 -24 -24 -40q-8 -4 -8 -13q0 -19 34 -19q22 0 48 28.5t23 96.5q-2 41 -23 68t-52 27q-50 0 -82 -44z" />
    <glyph glyph-name="six" unicode="6" horiz-adv-x="340" 
d="M181 -222q-89 0 -137 66q-44 59 -44 153q0 95 50 159q54 68 146 67q45 0 83 -23q42 -28 44 -70q1 -26 -19 -45.5t-48 -19.5q-26 0 -44 17.5t-18 41.5q0 11 15 47q2 4 2 8q0 12 -27 12q-36 0 -56 -65q-11 -37 -13 -67v-63q59 32 105 32q51 0 86.5 -31.5t35.5 -82.5
q0 -60 -51 -100q-48 -36 -110 -36zM178 -190q53 0 53 97q0 90 -53 90t-53 -91q0 -96 53 -96z" />
    <glyph glyph-name="seven" unicode="7" horiz-adv-x="348" 
d="M33 75h-33v133h33q4 -25 19 -25q6 0 34 20.5t66 16.5q40 -4 70.5 -35.5t44.5 -31.5q19 0 34 18q12 15 15 37h33q-13 -77 -22 -103q-11 -35 -49 -94q-56 -90 -59 -231q-32 15 -62 15q-26 0 -88 -15q0 116 154 232q35 31 41 40q17 22 23 50q-49 -39 -82 -39q-18 0 -34 13.5
t-30 26.5q-30 29 -53 29q-33 0 -55 -57z" />
    <glyph glyph-name="eight" unicode="8" horiz-adv-x="334" 
d="M246 -124q0 33 -52 62q-40 19 -79 39q-53 -38 -54 -80q0 -33 30 -59.5t63 -26.5q33 -5 62.5 13.5t29.5 51.5zM76 -4q-67 39 -67 110q0 55 53 90q46 28 105 27q58 0 100 -19q55 -27 56 -79q0 -52 -59 -99q71 -38 72 -110q1 -54 -51 -96t-130 -42q-60 0 -105 28
q-50 33 -50 90q0 64 76 100zM90 142q-3 -28 58 -62q53 -30 71 -30q38 26 42 72q3 36 -35 55q-29 14 -66 14q-65 0 -70 -49z" />
    <glyph glyph-name="nine" unicode="9" horiz-adv-x="340" 
d="M166 4q31 0 44 37q11 30 8 65q-7 85 -52 85q-48 0 -54 -88q-3 -37 8 -63q13 -36 46 -36zM162 223q89 0 137 -66q43 -58 43 -153q0 -90 -48 -154q-54 -73 -147 -72q-45 0 -81 23q-41 28 -46 70q0 27 19 46.5t46 19.5q28 0 47 -18.5t18 -44.5q-1 -14 -17 -46q-1 -4 -1 -7
q0 -13 25 -12q49 1 64 79q7 37 7 116q-59 -31 -105 -31q-51 0 -87 32t-36 82q0 61 52 100q48 36 110 36z" />
    <glyph glyph-name="colon" unicode=":" horiz-adv-x="365" 
d="M0 19h367v-38h-367v38z" />
    <glyph glyph-name="semicolon" unicode=";" horiz-adv-x="423" 
d="M0 19h428v-38h-428v38z" />
    <glyph glyph-name="less" unicode="&#x3c;" horiz-adv-x="206" 
d="M0 -378zM207 -72zM0 -346q-2 -1 -3 -2v0q0 -1 59 51t70 73q36 65 36 128q0 12 -1 23q-3 35 -38 65t-79 30q-15 0 -31 -5q-2 -10 -1 -17h-27q0 2 -1 35q0 22 6 25q17 12 46 13q71 0 125 -45q26 -22 34 -37q12 -22 12 -63q0 -71 -53 -158q-32 -52 -154 -148v32z" />
    <glyph glyph-name="equal" unicode="=" horiz-adv-x="1024" 
d="M-11 10h1046v-19h-1046v19zM-11 266h1046v-19h-1046v19zM-11 522h1046v-19h-1046v19zM-11 778h1046v-19h-1046v19zM-11 1034h1046v-19h-1046v19z" />
    <glyph glyph-name="greater" unicode="&#x3e;" horiz-adv-x="389" 
d="M0 263l390 -130l-390 -129v34l281 95l-281 96v34z" />
    <glyph glyph-name="question" unicode="?" horiz-adv-x="697" 
d="M4 197l-6 21q78 44 155 88q71 41 113 84q51 50 99 134q61 108 61 217q0 83 -41 148q-16 27 -56 57q-49 38 -88 38q-33 0 -69 -13.5t-53.5 -32t-30.5 -46.5q-3 -8 -3 -22q0 -34 29 -34q4 0 21 10.5t22 10.5q40 5 63.5 -18t23.5 -56t-25 -57q-28 -26 -68 -26q-47 0 -84 26
q-40 29 -42 75q-1 50 28.5 97.5t77.5 75.5q27 15 72 28t71 13q111 0 186 -63q101 -84 101 -230q0 -83 -52 -176q-49 -87 -122 -147q-143 -118 -383 -202zM598 881q0 20 14.5 35.5t37.5 15.5t37 -15.5t14 -35.5t-14 -36.5t-37 -16.5q-24 0 -38 15.5t-14 37.5zM598 656
q0 20 14.5 36t37.5 16t37 -15.5t14 -36.5q0 -20 -14 -36t-37 -16q-24 0 -38 15t-14 37z" />
    <glyph glyph-name="at" unicode="@" horiz-adv-x="332" 
d="M210 4l55 200q-48 -24 -114 -24q-32 0 -56.5 20t-24.5 50q0 57 53 66q26 5 46 -13.5t20 -45.5q0 -23 -6 -33v0q0 -7 15 -11q14 -3 20 0q45 14 92 87h19l-195 -693h-36l98 347q-48 -24 -115 -24q-32 0 -56.5 20t-24.5 50q0 29 18 49t45 19q26 0 42 -20.5t15 -46.5
q0 -7 -3.5 -17t-2.5 -12q3 -11 22 -12q24 -1 74 44z" />
    <glyph glyph-name="A" unicode="A" horiz-adv-x="152" 
d="M0 378zM-207 72zM0 346q2 1 3 2v0q0 1 -57 -50q-60 -53 -72 -74q-36 -65 -36 -128q0 -12 1 -23q3 -35 38 -65t79 -30q15 0 31 5q2 10 1 17h27q0 -2 1 -35q0 -22 -6 -25q-17 -12 -46 -13q-71 0 -125 45q-26 22 -34 37q-12 22 -12 63q0 71 53 158q32 52 154 148v-32z" />
    <glyph glyph-name="B" unicode="B" horiz-adv-x="687" 
d="M0 -9v1042h120v-1042h-120zM218 -9h-38v1042h38v-512q88 52 127 232h2q6 -53 31 -93q31 -48 78 -52q68 -6 89 71q8 32 10 130q2 87 -16 128q-26 59 -100 65q-16 1 -39.5 -9.5t-23.5 -26.5q0 -4 19.5 -23.5t19.5 -44.5q0 -27 -18.5 -42t-45.5 -15t-44.5 20.5t-17.5 46.5
q0 59 62 96q52 30 118 29q99 0 160 -67t60 -176q-1 -89 -52 -151t-135 -71q-47 -4 -106 20l-84 -75l84 -76q58 24 106 20q84 -8 137 -72q50 -61 51 -151q1 -109 -60.5 -176t-160.5 -67q-66 0 -119 31q-61 36 -61 95q0 28 18 48t44 20q27 0 45.5 -15.5t18.5 -42.5
q0 -25 -19.5 -44.5t-19.5 -24.5q0 -15 25 -27q22 -10 38 -11q120 0 116 201q-2 94 -11 128q-22 74 -88 68q-47 -4 -78 -52q-25 -39 -31 -94h-2q-36 175 -127 233v-513z" />
    <glyph glyph-name="C" unicode="C" horiz-adv-x="430" 
d="M131 66v-138q0 -100 64 -137v416q-64 -35 -64 -141zM225 222v-442q13 -6 36 -6q47 0 84 25q47 32 59 97h27q-4 -66 -56 -109q-56 -47 -150 -47v-174h-30v178q-93 16 -147 96q-48 73 -48 170q0 87 55 157t140 88v180h30v-174q68 0 126 -41q63 -45 64 -110q0 -30 -19 -54
q-22 -27 -54 -26q-29 0 -50.5 17.5t-21.5 45.5q0 47 58 69q10 -1 23 9q3 15 -28 37q-29 18 -47 20q-24 3 -51 -6z" />
    <glyph glyph-name="D" unicode="D" horiz-adv-x="319" 
d="M0 128h321v-128h-321v128z" />
    <glyph glyph-name="E" unicode="E" horiz-adv-x="306" 
d="M200 131q51 -1 83 -29q27 -24 26 -67q0 -72 -78 -125q-66 -45 -125 -43q-51 1 -79 29q-27 25 -27 65q0 37 23.5 74.5t58.5 60.5q58 37 118 35zM122 47q-59 -42 -74 -60q-10 -13 -11 -41q0 -8 9 -21t16 -16q13 -5 23 -5q25 0 104 53q53 37 71 54.5t18 35.5q0 5 -2 13.5
t-11 20t-16.5 14t-17.5 2.5q-38 0 -109 -50z" />
    <glyph glyph-name="F" unicode="F" horiz-adv-x="769" 
d="M615 240h83l3 -32h-92l-22 -109q-20 -97 -59 -164q-53 -95 -130 -100q-31 -2 -56 18t-28 52q-4 53 42 58q19 3 33.5 -11t14.5 -34q0 -13 -27 -40q-6 -4 -4 -10q2 -7 10 -7q52 0 84 133q22 108 43 214h-64l-3 32h76q20 66 67 108q51 48 115 48q47 0 68 -44q2 -10 2 -21
q0 -48 -48 -58q-14 -1 -25.5 11t-10.5 26q1 20 21 33t20 16q-2 11 -25 15q-32 3 -58 -47q-18 -33 -30 -87zM282 42l45 166q1 6 -6 10t-12 3q-22 -1 -38 -45l-47 -176h-67l56 208q2 6 -5 10t-12 3q-20 -1 -37 -45l-48 -176h-68l57 205q2 7 -3 13t-9 6q-36 0 -75 -111h-23
q27 63 46 91q37 51 84 51q28 0 34 -39q44 39 78 39q30 0 38 -39q46 39 80 39q22 0 36 -12.5t10 -28.5l-46 -178q0 -19 12 -20q16 0 41 37q10 22 28 48h20q-19 -36 -38 -71q-30 -45 -63 -45q-32 0 -51 13.5t-19 34.5q0 4 2 9z" />
    <glyph glyph-name="G" unicode="G" horiz-adv-x="206" 
d="M1 -379zM208 -73zM1 -379zM1 -379v32q71 57 120 122q15 20 28 64t13 87q0 39 -37 66q-41 29 -111 24q-2 -10 -1 -17h-28v35q0 22 6 25q17 12 46 13q71 0 125 -45q46 -38 46 -100q0 -71 -54 -158q-33 -54 -116 -123q-7 -6 116 -90l6 -41z" />
    <glyph glyph-name="H" unicode="H" horiz-adv-x="407" 
d="M206 -182v634h31v-350q50 39 91 39q31 0 56 -26t25 -60q0 -40 -36 -81q-17 -19 -67 -59q-35 -28 -100 -97zM237 56v-171q52 61 60 74q36 50 36 87q0 49 -40 55q-16 3 -36 -15.5t-20 -29.5zM0 -182v634h31v-350q50 39 91 39q31 0 56 -26t25 -60q0 -40 -36 -81
q-17 -19 -67 -59q-35 -28 -100 -97zM31 56v-171q52 61 60 74q36 50 36 87q0 49 -40 55q-16 3 -36 -15.5t-20 -29.5z" />
    <glyph glyph-name="I" unicode="I" horiz-adv-x="206" 
d="M-176 145h351v42h32v-374h-31v41h-352v-41h-30v374h30v-42zM174 -63v125h-350v-125h350z" />
    <glyph glyph-name="J" unicode="J" horiz-adv-x="276" 
d="M0 -1v295h26v-21q43 3 88 30t73 65q54 73 58 155q5 129 -21 231l16 6q39 -66 39 -209q0 -27 -1 -54q-5 -100 -72 -185q-39 -42 -119 -133q-35 -42 -48 -95q-3 -12 -13 -85h-26z" />
    <glyph glyph-name="K" unicode="K" horiz-adv-x="285" 
d="M26 -1h-26v401h26v-20q53 34 106 66q70 44 94 74q32 39 35 123q3 81 -15 121l11 14q29 -41 26 -144q-3 -111 -59 -179q-33 -40 -104 -105q-37 -33 -64 -81q-30 -55 -30 -107q85 48 120 79q56 47 87 114q23 49 25 105t-4 74l8 12q16 -57 17 -92q0 -136 -78 -234
q-26 -33 -123 -119q-40 -35 -52 -102z" />
    <glyph glyph-name="L" unicode="L" horiz-adv-x="416" 
d="M0 159h154v-222q52 -27 80 -52q31 -31 63 -61q75 -74 121 -169l-23 -8q-51 63 -62 75q-46 51 -83 73q-77 44 -250 66v298z" />
    <glyph glyph-name="M" unicode="M" horiz-adv-x="599" 
d="M0 23v59l134 156q5 6 11 6q7 0 19 -11l119 -105v189h30v-162l71 83q5 6 11 6q7 0 19 -11l108 -95q15 -13 30 3l48 58v-56l-113 -135q-14 -17 -29 -4l-108 96q-11 9 -18 10q-6 0 -11 -6l-8 -8v-188h-30v152l-45 -52q-15 -17 -30 -4l-108 96q-11 9 -18 10q-6 0 -11 -6z" />
    <glyph glyph-name="N" unicode="N" horiz-adv-x="101" 
d="M102 0zM51 51zM0 0l51 -51l51 51l-51 51z" />
    <glyph glyph-name="O" unicode="O" horiz-adv-x="361" 
d="M184 -161q-87 117 -184 162q95 66 184 161q87 -117 185 -162q-99 -65 -185 -161zM152 92l-68 -62l135 -120l68 63z" />
    <glyph glyph-name="P" unicode="P" horiz-adv-x="753" 
d="M651 224q-39 5 -62 -71q-18 -58 -14 -100q3 -37 26 -37q32 0 56 75q22 66 18 103q-4 30 -24 30zM582 -142h-224l-2 30h50q22 0 22 20l83 297q2 7 -2.5 13t-8.5 6q-26 0 -57 -65h-21q42 96 107 96q28 0 35 -39q70 39 99 39q83 0 91 -96q5 -60 -34 -116q-42 -58 -100 -58
q-35 0 -68 31l-32 -113q-2 -14 11 -15h48zM43 0l57 205q2 7 -3 13t-9 6q-36 0 -75 -111h-23q27 63 46 91q37 51 84 51q28 0 34 -39q44 39 78 39q30 0 38 -39q46 39 80 39q22 0 36 -12.5t10 -28.5l-46 -178q0 -19 12 -20q24 0 50 52h18q-38 -83 -80 -83q-32 0 -51 13.5
t-19 34.5q0 4 2 9l45 166q1 6 -6 10t-12 3q-22 -1 -38 -45l-47 -176h-67l56 208q2 6 -5 10t-12 3q-20 -1 -37 -45l-48 -176h-68z" />
    <glyph glyph-name="Q" unicode="Q" horiz-adv-x="306" 
d="M12 12q70 59 129 129q8 12 12.5 12.5t12.5 -12.5q59 -70 129 -129q12 -8 12 -12t-12 -12q-70 -59 -129 -129q-8 -12 -12 -12.5t-13 12.5q-59 70 -129 129q-12 8 -12 12t12 12z" />
    <glyph glyph-name="R" unicode="R" horiz-adv-x="306" 
d="M0 154h307v-308h-307v308z" />
    <glyph glyph-name="S" unicode="S" horiz-adv-x="541" 
d="M390 240h83l3 -32h-92l-24 -109q-20 -97 -57 -164q-54 -95 -130 -100q-31 -2 -56 18t-28 52q-5 53 42 58q18 3 33 -11t15 -34q0 -14 -16 -28.5t-16 -19.5q-1 -9 10 -9q53 0 85 133q22 108 42 214h-63l-3 32h76q19 63 65 107q52 49 117 49q46 0 67 -44q3 -10 3 -21
q0 -48 -49 -58q-13 -1 -24.5 11t-10.5 26q1 19 21 32.5t19 16.5q-2 11 -24 15q-32 3 -58 -47q-18 -33 -30 -87zM25 173q0 37 28 60.5t69 21.5q71 -3 78 -59q3 -29 -21 -30q-28 -1 -32 24q0 3 2 10t2 9q0 8 -10.5 12.5t-18.5 3.5q-13 0 -25 -10.5t-12 -24.5q0 -15 29 -33
q43 -28 52 -37q27 -26 23 -62q-3 -33 -32.5 -52t-68.5 -21q-37 -2 -67.5 16.5t-30.5 50.5q0 40 32 40q18 0 28 -20q0 -11 -5.5 -23.5t-5.5 -15.5q3 -16 41 -17q15 0 30 10.5t15 25.5q0 19 -49.5 50.5t-50.5 70.5z" />
    <glyph glyph-name="T" unicode="T" horiz-adv-x="534" 
d="M268 -57l-97 79q-51 41 -81 37t-46 -26q-13 -20 -13 -47q1 -23 11 -38q12 -17 33 -17q9 0 26 14.5t33 14.5q29 0 39 -30q5 -27 -19 -43q-22 -13 -49 -12q-50 3 -78.5 42.5t-26.5 94.5q3 97 113 114q71 2 153 -69l94 -81q50 -43 81 -36q31 3 48 25q14 19 15 46
q0 22 -11 40.5t-33 17.5q-8 0 -26 -14.5t-36 -14.5q-15 0 -26.5 11t-11.5 28q0 23 25 35q19 11 42 11q47 0 78 -40q28 -35 30 -87q3 -50 -33.5 -87t-82.5 -37q-67 0 -151 69z" />
    <glyph glyph-name="U" unicode="U" horiz-adv-x="570" 
d="M571 0h-34q-5 112 -75 174.5t-179 62.5q-108 0 -174 -63q-70 -63 -74 -174h-35q29 340 283 340q138 0 213 -100q63 -87 75 -240zM339 52q0 -22 -16 -37t-39 -15q-26 0 -42.5 15.5t-16.5 36.5q0 19 16.5 34t42.5 15q24 0 39.5 -15t15.5 -34z" />
    <glyph glyph-name="V" unicode="V" horiz-adv-x="265" 
d="M266 229q0 -78 -63 -151q-11 -13 -123 -116q-47 -44 -52 -136h-26v221h26v-20q116 67 135 82q73 59 73 140q0 57 -22 124l16 12q36 -73 36 -156z" />
    <glyph glyph-name="W" unicode="W" horiz-adv-x="655" 
d="M658 -164h-44v340h44v-340zM614 -164v340v-340zM529 -1q8 -69 -61 -104q-54 -28 -132 -28q-196 0 -210 132q-8 68 65 101q55 25 137 25q76 0 128 -27q66 -32 73 -99zM126 -164h-43v340h43v-340zM83 -164v340v-340zM427 -27q-13 53 -47 92q-37 42 -77 39q-24 -1 -42 -14
q-26 -18 -25 -54q0 -8 2 -17q9 -61 43 -99.5t79 -32.5q70 9 70 63q0 11 -3 23zM529 -1zM573 -164h-44v340h44v-340zM529 -164v340v-340zM44 -164h-44v340h44v-340zM0 -164v340v-340z" />
    <glyph glyph-name="X" unicode="X" horiz-adv-x="306" 
d="M188 125q59 0 87 -20q33 -25 33 -68q0 -74 -71 -125q-56 -41 -128 -40q-61 0 -90 30q-19 22 -19 60q0 70 77 124q55 39 111 39z" />
    <glyph glyph-name="Y" unicode="Y" horiz-adv-x="1024" 
d="M-11 9h1046v-18h-1046v18z" />
    <glyph glyph-name="Z" unicode="Z" horiz-adv-x="596" 
d="M301 241h83l3 -32h-92l-23 -110q-8 -37 -30 -95q-28 -73 -59 -113q-40 -52 -99 -56q-31 -2 -56 18.5t-28 52.5q-5 52 42 58q19 2 33.5 -11.5t14.5 -33.5q0 -13 -28 -41q-6 -3 -4 -10t11 -7q52 0 84 134q22 106 43 214h-64l-3 32h76q20 65 66 108q51 47 116 47
q47 0 67 -44q3 -10 3 -21q0 -48 -48 -58q-14 0 -25.5 11.5t-10.5 25.5q1 20 21 33.5t19 16.5q-1 11 -24 14q-32 3 -58 -47q-18 -32 -30 -86zM352 27l177 160h-70q-18 0 -37 -33h-20l18 84h177l2 -28l-186 -167l2 -1q11 11 58 9q1 0 39 -13q11 -3 20 1t9 12q0 3 -1 6
q-23 18 -23 27q0 15 21 17q-6 -1 22 -1q5 0 11.5 -11t7.5 -19q3 -35 -24.5 -54t-64.5 -19q-57 0 -59 1q-15 12 -36 12q-15 0 -28 -13h-28q0 18 13 30z" />
    <glyph glyph-name="bracketleft" unicode="[" horiz-adv-x="263" 
d="M154 -9h-154v1042h154v-1042zM264 -9h-38v1042h38v-1042z" />
    <glyph glyph-name="backslash" unicode="\" horiz-adv-x="265" 
d="M266 -11h-153v1042h153v-1042zM40 -11h-38v1042h38v-1042z" />
    <glyph glyph-name="bracketright" unicode="]" horiz-adv-x="456" 
d="M154 -9h-154v1042h154v-1042zM346 379q0 23 16.5 39t38.5 16q23 0 39.5 -16.5t16.5 -38.5q0 -23 -16.5 -38.5t-39.5 -15.5t-39 15.5t-16 38.5zM346 647q0 23 16.5 39t38.5 16q23 0 39.5 -16t16.5 -39t-16.5 -38.5t-39.5 -15.5t-39 15.5t-16 38.5zM264 -9h-38v1042h38
v-1042z" />
    <glyph glyph-name="asciicircum" unicode="^" horiz-adv-x="268" 
d="M119 427l150 -427h-70l-98 275l-75 -275h-26z" />
    <glyph glyph-name="underscore" unicode="_" 
d="M0 15h512v-30h-512v30z" />
    <glyph glyph-name="grave" unicode="`" horiz-adv-x="623" 
d="M445 521h180l-446 -521h-179zM65 395q0 24 17 41.5t41 17.5t41 -17.5t17 -41.5t-17.5 -41t-40.5 -17q-24 0 -41 17t-17 41zM443 126q0 24 17.5 41t41.5 17t41 -17t17 -41t-17.5 -41t-40.5 -17q-24 0 -41.5 17t-17.5 41z" />
    <glyph glyph-name="a" unicode="a" horiz-adv-x="257" 
d="M99 -393l97 347q-48 -24 -115 -24q-32 0 -56.5 20t-24.5 50q0 57 53 67q26 5 46.5 -14t20.5 -46q0 -16 -4 -22l-2 -11q0 -7 14 -11q14 -3 20 0q45 14 93 87h17l-123 -443h-36z" />
    <glyph glyph-name="b" unicode="b" horiz-adv-x="201" 
d="M0 -182v634h31v-350q50 39 91 39q31 0 56.5 -26t24.5 -60q-1 -40 -36 -81q-19 -22 -67 -59q-35 -28 -100 -97zM31 56v-171q52 61 60 74q36 50 36 87q0 49 -40 55q-16 3 -36 -15.5t-20 -29.5z" />
    <glyph glyph-name="c" unicode="c" horiz-adv-x="430" 
d="M403 -109h27q-4 -52 -55 -98q-61 -53 -150 -53q-47 0 -95.5 27t-77.5 66q-53 72 -53 177q0 106 82 186q68 66 156 65q62 0 117 -43q59 -46 60 -108q0 -30 -19 -54q-22 -27 -54 -26q-29 0 -50.5 17.5t-21.5 45.5q0 47 57 69q11 0 23 9q1 4 -2 17t-5 15q-26 22 -67 25
q-72 7 -111 -48q-34 -46 -34 -162v-84q2 -55 17 -88q33 -74 109 -74q28 0 67 18q25 12 32 19q41 28 48 82z" />
    <glyph glyph-name="d" unicode="d" horiz-adv-x="762" 
d="M138 0h-138v9q33 0 46 47l71 253q3 9 3 16q0 20 -43 25v8h134q178 0 178 -145q0 -98 -78 -159q-71 -54 -173 -54zM177 332l-79 -287q-4 -28 37 -28q110 0 159 85q33 56 33 118q0 122 -114 122q-30 0 -36 -10zM724 358l-22 -105h-10q0 87 -66 87q-26 0 -42 -15t-16 -39
q0 -32 57 -88t57 -104q0 -47 -37 -79q-33 -30 -74 -27q-13 1 -42 10.5t-41 9.5q-17 0 -19 -17h-10l18 119h11q-1 -7 -1 -15q0 -35 22 -61.5t57 -26.5q29 0 49.5 21t20.5 50q0 36 -58 92t-58 99q0 39 27.5 63.5t67.5 24.5q28 0 47 -6.5t27 -6.5q13 0 23 14h12zM353 30
q0 29 29 28q29 0 29 -28q0 -29 -29 -29t-29 29zM707 27q0 29 28 28q29 0 29 -28q0 -29 -29 -29q-28 0 -28 29z" />
    <glyph glyph-name="e" unicode="e" horiz-adv-x="18" 
d="M18 -9h-18v1042h18v-1042z" />
    <glyph glyph-name="f" unicode="f" horiz-adv-x="454" 
d="M301 241h83l3 -32h-92l-23 -110q-8 -37 -30 -95q-28 -73 -59 -113q-40 -52 -99 -56q-31 -2 -56 18.5t-28 52.5q-5 52 42 58q19 2 33.5 -11.5t14.5 -33.5q0 -13 -28 -41q-6 -3 -4 -10t11 -7q52 0 84 134q22 106 43 214h-64l-3 32h76q20 65 66 108q51 47 116 47
q47 0 67 -44q3 -10 3 -21q0 -48 -48 -58q-14 0 -25.5 11.5t-10.5 25.5q1 20 21 33.5t19 16.5q-1 11 -24 14q-32 3 -58 -47q-18 -32 -30 -86z" />
    <glyph glyph-name="g" unicode="g" horiz-adv-x="157" 
d="M67 547h22q60 -55 67 -90q0 -30 -47 -69q-25 -20 -33 -30q-15 -16 -17 -33q0 -10 30 -52q60 -55 67 -90q0 -30 -47 -68q-25 -20 -33 -30q-15 -16 -17 -34q0 -10 30 -51h-22q-60 55 -67 90q0 30 47 69q25 20 33 29q15 16 16 34q0 10 -29 51q-60 55 -67 91q0 30 47 68
q25 20 33 30q15 16 16 34q1 10 -29 51z" />
    <glyph glyph-name="h" unicode="h" horiz-adv-x="24" 
d="M26 -265h-26v274h26v-274z" />
    <glyph glyph-name="i" unicode="i" horiz-adv-x="152" 
d="M0 256h154v-256h-154v256z" />
    <glyph glyph-name="j" unicode="j" horiz-adv-x="559" 
d="M282 -295v295h25q10 -73 14 -85q13 -53 48 -95q43 -47 118 -133q72 -90 72 -185q0 -177 -52 -264h-17q41 120 36 238q-3 88 -57 155q-30 38 -75 64.5t-87 30.5v-21h-25z" />
    <glyph glyph-name="k" unicode="k" horiz-adv-x="562" 
d="M307 -427h-25v427h25q5 -86 52 -128q89 -80 128 -128q72 -90 72 -184q0 -56 -18 -117l-13 16q6 37 4 90q-2 65 -63 140q-46 56 -162 123q1 -52 31 -108q27 -48 63 -81q72 -65 105 -104q53 -67 53 -182q0 -85 -37 -146l-9 17q23 42 19 123q-1 27 -15 70t-31 62
q-25 30 -83 69q-48 31 -96 61v-20z" />
    <glyph glyph-name="l" unicode="l" horiz-adv-x="466" 
d="M352 522l56 200q-48 -24 -115 -24q-32 0 -56.5 20t-24.5 50q0 57 53 67q26 5 46.5 -14t20.5 -46q0 -16 -4 -22l-2 -11q0 -7 14 -11q14 -3 20 0q45 14 93 87h17l-335 -1211h-36l97 347q-48 -24 -115 -24q-32 0 -56.5 20t-24.5 50q0 29 18 49t45 19q25 0 41 -18.5t16 -44.5
q0 -10 -3.5 -20.5t-2.5 -12.5q4 -11 22 -12q31 -2 75 48l55 200q-48 -24 -114 -24q-32 0 -56.5 20t-24.5 50q0 29 17.5 49t45.5 19q26 0 41.5 -20.5t14.5 -46.5q0 -8 -4 -17t-2 -12q4 -11 23 -12q15 -1 41 18q20 15 34 34l55 200q-48 -24 -115 -24q-32 0 -56.5 20t-24.5 50
q0 57 54 67q26 5 46 -14t20 -46q0 -16 -4 -22l-2 -11q0 -7 14 -11q14 -3 21 0q30 10 62 47z" />
    <glyph glyph-name="m" unicode="m" horiz-adv-x="619" 
d="M0 23v59l133 155q11 10 19 10q6 0 11 -6l107 -97q11 -9 19 -9q6 0 11 5l83 97q11 10 18 10q6 0 12 -6l107 -97q11 -9 19 -9q6 0 11 5l71 82v-59l-134 -155q-11 -10 -18 -10q-6 0 -11 6l-108 96q-11 9 -18 10q-6 0 -11 -6l-83 -96q-11 -10 -19 -10q-6 0 -11 6l-108 96
q-11 9 -18 10q-6 0 -11 -6z" />
    <glyph glyph-name="n" unicode="n" horiz-adv-x="234" 
d="M31 52v-134l119 30v134zM0 -185v543h31v-211l149 38v-543h-30v211z" />
    <glyph glyph-name="o" unicode="o" horiz-adv-x="143" 
d="M72 59q-26 0 -42 -16.5t-16 -43.5q0 -26 16.5 -42t42.5 -17q29 0 45.5 18t14.5 48q-5 51 -61 53zM74 -75q-31 -1 -52 20t-22 53t20.5 54t53.5 22q30 0 50.5 -19.5t22.5 -49.5q2 -33 -19 -56t-54 -24z" />
    <glyph glyph-name="p" unicode="p" horiz-adv-x="392" 
d="M288 224q-40 5 -64 -72q-17 -57 -13 -100q4 -37 27 -37q32 0 56 76q22 66 17 103q-3 30 -23 30zM66 112h-24q55 143 129 143q27 0 35 -40q70 40 98 40q83 0 91 -97q5 -59 -34 -115q-42 -59 -101 -59q-34 0 -66 31l-33 -113q-2 -14 12 -15h47v-30h-223v30h50q20 0 23 20
l83 297q2 8 -3 14t-10 6q-28 1 -74 -112z" />
    <glyph glyph-name="q" unicode="q" horiz-adv-x="306" 
d="M307 865h-26v-760q-2 0 0 1v-1q-39 23 -84 23q-69 0 -130 -47q-67 -50 -67 -117q0 -45 31.5 -68.5t77.5 -23.5q73 0 133 46q66 50 65 122v825z" />
    <glyph glyph-name="r" unicode="r" horiz-adv-x="570" 
d="M0 0v514h61l-1 -239l124 -1l-1 240h61v-514h-59l-1 240h-125v-240h-59z" />
    <glyph glyph-name="s" unicode="s" horiz-adv-x="1227" 
d="M1063 211l-25 -111q-22 -98 -58 -163q-53 -95 -130 -101q-31 -2 -56 18.5t-27 52.5q-3 53 41 58q19 2 34 -11.5t14 -33.5q0 -14 -27 -41q-5 -5 -4 -10q2 -7 10 -7q54 0 84 134q14 65 44 214h-156l-25 -111q-22 -97 -58 -164q-53 -95 -130 -100q-31 -2 -56 18.5t-27 52.5
q-3 53 41 58q19 2 34 -11.5t14 -33.5q0 -14 -27 -41q-5 -5 -4 -10q2 -7 10 -7q50 0 84 134q3 12 43 214h-156l-23 -110q-19 -94 -58 -164q-53 -95 -130 -100q-31 -2 -56 18.5t-28 52.5q-4 53 42 58q19 2 34 -11.5t14 -33.5q0 -14 -27 -41q-6 -6 -5 -10q2 -7 11 -7
q54 0 84 134q2 9 43 214h-156l-23 -110q-19 -94 -58 -164q-54 -95 -130 -100q-31 -2 -56 18.5t-28 52.5q-5 53 42 58q19 2 33.5 -11.5t14.5 -33.5q0 -13 -28 -41q-5 -5 -4 -10q2 -7 11 -7q54 0 84 134q2 9 43 214h-64l-3 32h76q20 65 66 108q51 47 116 47q47 0 67 -44
q3 -7 3 -21q0 -50 -48 -58q-12 -2 -26 12q-11 11 -10 25q1 20 21 33.5t19 16.5q-4 11 -24 14q-32 3 -58 -47q-17 -32 -30 -86h159q20 65 66 108q49 47 116 47q49 0 68 -44q2 -5 2 -21q0 -50 -48 -58q-12 -2 -26 12q-11 11 -10 25q1 20 21 33.5t20 16.5q0 11 -25 14
q-32 3 -58 -47q-17 -32 -30 -86h160q20 65 66 108q51 47 115 47q48 0 68 -44q3 -7 3 -21q0 -48 -49 -58q-11 -2 -26 12q-12 11 -10 25q2 20 21.5 33.5t19.5 16.5q0 11 -25 14q-31 3 -58 -47q-12 -23 -29 -86h161q20 65 66 107q49 47 116 47q48 0 68 -44q3 -7 3 -21
q0 -48 -49 -58q-11 -2 -26 12q-12 11 -10 25q2 20 21.5 33.5t19.5 16.5q0 11 -25 14q-31 3 -58 -47q-12 -23 -29 -86h126l4 -29h-137z" />
    <glyph glyph-name="t" unicode="t" horiz-adv-x="263" 
d="M-230 143h461v48h31v-376h-31v45h-461v-45h-31v376h31v-48zM231 -59v119h-461v-119h461z" />
    <glyph glyph-name="u" unicode="u" horiz-adv-x="571" 
d="M0 0h35q5 -112 77 -175q68 -61 177 -62q108 0 175.5 63t72.5 174h34q-29 -340 -282 -340q-138 0 -213 100q-64 87 -76 240zM232 -52q0 22 16 37t40 15q26 0 42 -15.5t16 -36.5q0 -19 -16.5 -34t-41.5 -15q-24 0 -40 15t-16 34z" />
    <glyph glyph-name="v" unicode="v" horiz-adv-x="268" 
d="M151 0l-151 427l83 -1l89 -259l72 260h25z" />
    <glyph glyph-name="w" unicode="w" horiz-adv-x="411" 
d="M112 20q9 -59 47.5 -98t74.5 -34q71 9 71 64q0 10 -3 22q-13 53 -47 93q-37 41 -78 38q-24 -1 -42 -14q-25 -18 -24 -54q0 -8 1 -17zM0 0q-8 69 67 101q54 25 135 25q77 0 130 -27q68 -33 76 -99q8 -68 -64 -103q-56 -29 -134 -29q-195 0 -210 132z" />
    <glyph glyph-name="x" unicode="x" horiz-adv-x="306" 
d="M307 -9h-25v274h25v-274z" />
    <glyph glyph-name="y" unicode="y" horiz-adv-x="765" 
d="M652 380l6 9q109 -95 109 -257q0 -155 -111 -244l-4 10q41 37 57 102q10 47 10 130q0 95 -7 134q-14 69 -60 116zM115 367l-6 9q-109 -94 -109 -256q0 -155 111 -245l4 9q-41 38 -57 104q-10 46 -10 129q0 95 7 135q14 68 60 115zM400 -182v634h31v-350q50 39 91 39
q31 0 56 -26t25 -60q0 -40 -36 -81q-17 -19 -66 -59q-36 -28 -101 -97zM431 56v-171q52 61 61 74q36 50 35 87q0 49 -40 55q-16 3 -36 -15.5t-20 -29.5zM195 -182v634h30v-350q50 39 91 39q31 0 56 -26t25 -60q0 -40 -36 -81q-17 -19 -66 -59q-35 -28 -100 -97zM225 56v-171
q52 61 61 74q36 50 36 87q0 49 -40 55q-16 3 -36.5 -15.5t-20.5 -29.5z" />
    <glyph glyph-name="z" unicode="z" horiz-adv-x="266" 
d="M15 28l183 153h-68q-17 0 -38 -33h-19l24 80h169v-25l-192 -159l2 -2q12 11 56 9q1 0 36 -13q12 -3 22 3t6 16q-18 17 -19 26q2 14 21 16q-6 -1 22 -1q4 0 9 -10.5t5 -18.5q0 -33 -27 -51t-63 -18q-55 0 -56 1q-14 11 -33 11q-15 0 -28 -12h-27q2 16 15 28z" />
    <glyph glyph-name="braceleft" unicode="{" horiz-adv-x="106" 
d="M0 379q0 23 16.5 39t38.5 16t38.5 -16.5t16.5 -38.5q0 -23 -16.5 -39t-38.5 -16q-23 0 -39 16t-16 39zM0 647q0 23 16.5 39t38.5 16t38.5 -16t16.5 -39t-16.5 -39t-38.5 -16q-23 0 -39 16t-16 39z" />
    <glyph glyph-name="bar" unicode="|" horiz-adv-x="327" 
d="M89 297l51 -116l48 120l40 -17l-28 -70l-1 1q-4 -8 -35 -83l36 -85l88 199l37 -22l-102 -230l94 -232l-33 -21l-84 198l-31 -78l61 -143l-35 -17l-49 108l-45 -108l-38 21l60 143l-33 77l-38 -89h-2q-5 -10 -43 -102l-35 21l93 228l-97 224l34 22l84 -194l32 78l-29 67
h-1q-4 8 -36 82zM52 279zM108 0l39 -80l33 80l-38 79z" />
    <glyph glyph-name="braceright" unicode="}" horiz-adv-x="464" 
d="M466 -9h-154v1042h154v-1042zM65 434q23 0 39 -16.5t16 -38.5q0 -23 -16.5 -38.5t-38.5 -15.5q-23 0 -39.5 15.5t-16.5 38.5t16.5 39t39.5 16zM65 702q23 0 39 -16t16 -39t-16.5 -38.5t-38.5 -15.5q-23 0 -39.5 16t-16.5 38q0 23 16.5 39t39.5 16zM240 -9h-38v1042h38
v-1042z" />
    <glyph glyph-name="asciitilde" unicode="~" horiz-adv-x="352" 
d="M0 35v33q145 124 186 116q29 -5 70.5 -56.5t62.5 -52.5q33 -2 58 13q6 5 46 41v-33q-68 -58 -86 -71q-62 -47 -91 -42t-69 58t-61 54q-35 2 -63 -15q-10 -6 -53 -45z" />
    <glyph glyph-name="uni007F" 
d="M479 669l58 -49l-537 -620l-57 49zM-56 654l57 43l493 -654l-58 -43z" />
    <glyph glyph-name="uni0080" 
d="M479 669l58 -49l-537 -620l-57 49zM-56 654l57 43l493 -654l-58 -43z" />
    <glyph glyph-name="uni0081" 
d="M479 669l58 -49l-537 -620l-57 49zM-56 654l57 43l493 -654l-58 -43z" />
    <glyph glyph-name="uni0082" 
d="M479 669l58 -49l-537 -620l-57 49zM-56 654l57 43l493 -654l-58 -43z" />
    <glyph glyph-name="uni0083" 
d="M479 669l58 -49l-537 -620l-57 49zM-56 654l57 43l493 -654l-58 -43z" />
    <glyph glyph-name="uni0084" 
d="M479 669l58 -49l-537 -620l-57 49zM-56 654l57 43l493 -654l-58 -43z" />
    <glyph glyph-name="uni0085" unicode="&#x85;" 
d="M479 669l58 -49l-537 -620l-57 49zM-56 654l57 43l493 -654l-58 -43z" />
    <glyph glyph-name="uni0086" 
d="M479 669l58 -49l-537 -620l-57 49zM-56 654l57 43l493 -654l-58 -43z" />
    <glyph glyph-name="uni0087" 
d="M479 669l58 -49l-537 -620l-57 49zM-56 654l57 43l493 -654l-58 -43z" />
    <glyph glyph-name="uni0088" 
d="M479 669l58 -49l-537 -620l-57 49zM-56 654l57 43l493 -654l-58 -43z" />
    <glyph glyph-name="uni0089" 
d="M479 669l58 -49l-537 -620l-57 49zM-56 654l57 43l493 -654l-58 -43z" />
    <glyph glyph-name="uni008A" 
d="M479 669l58 -49l-537 -620l-57 49zM-56 654l57 43l493 -654l-58 -43z" />
    <glyph glyph-name="uni008B" 
d="M479 669l58 -49l-537 -620l-57 49zM-56 654l57 43l493 -654l-58 -43z" />
    <glyph glyph-name="uni008C" 
d="M479 669l58 -49l-537 -620l-57 49zM-56 654l57 43l493 -654l-58 -43z" />
    <glyph glyph-name="uni008D" 
d="M479 669l58 -49l-537 -620l-57 49zM-56 654l57 43l493 -654l-58 -43z" />
    <glyph glyph-name="uni008E" 
d="M479 669l58 -49l-537 -620l-57 49zM-56 654l57 43l493 -654l-58 -43z" />
    <glyph glyph-name="uni008F" 
d="M479 669l58 -49l-537 -620l-57 49zM-56 654l57 43l493 -654l-58 -43z" />
    <glyph glyph-name="uni0090" 
d="M479 669l58 -49l-537 -620l-57 49zM-56 654l57 43l493 -654l-58 -43z" />
    <glyph glyph-name="uni0091" 
d="M479 669l58 -49l-537 -620l-57 49zM-56 654l57 43l493 -654l-58 -43z" />
    <glyph glyph-name="uni0092" 
d="M479 669l58 -49l-537 -620l-57 49zM-56 654l57 43l493 -654l-58 -43z" />
    <glyph glyph-name="uni0093" 
d="M479 669l58 -49l-537 -620l-57 49zM-56 654l57 43l493 -654l-58 -43z" />
    <glyph glyph-name="uni0094" 
d="M479 669l58 -49l-537 -620l-57 49zM-56 654l57 43l493 -654l-58 -43z" />
    <glyph glyph-name="uni0095" 
d="M479 669l58 -49l-537 -620l-57 49zM-56 654l57 43l493 -654l-58 -43z" />
    <glyph glyph-name="uni0096" 
d="M479 669l58 -49l-537 -620l-57 49zM-56 654l57 43l493 -654l-58 -43z" />
    <glyph glyph-name="uni0097" 
d="M479 669l58 -49l-537 -620l-57 49zM-56 654l57 43l493 -654l-58 -43z" />
    <glyph glyph-name="uni0098" 
d="M479 669l58 -49l-537 -620l-57 49zM-56 654l57 43l493 -654l-58 -43z" />
    <glyph glyph-name="uni0099" 
d="M479 669l58 -49l-537 -620l-57 49zM-56 654l57 43l493 -654l-58 -43z" />
    <glyph glyph-name="uni009A" 
d="M479 669l58 -49l-537 -620l-57 49zM-56 654l57 43l493 -654l-58 -43z" />
    <glyph glyph-name="uni009B" 
d="M479 669l58 -49l-537 -620l-57 49zM-56 654l57 43l493 -654l-58 -43z" />
    <glyph glyph-name="uni009C" 
d="M479 669l58 -49l-537 -620l-57 49zM-56 654l57 43l493 -654l-58 -43z" />
    <glyph glyph-name="uni009D" 
d="M479 669l58 -49l-537 -620l-57 49zM-56 654l57 43l493 -654l-58 -43z" />
    <glyph glyph-name="uni009E" 
d="M479 669l58 -49l-537 -620l-57 49zM-56 654l57 43l493 -654l-58 -43z" />
    <glyph glyph-name="uni009F" 
d="M479 669l58 -49l-537 -620l-57 49zM-56 654l57 43l493 -654l-58 -43z" />
    <glyph glyph-name="nonbreakingspace" unicode="&#xa0;" horiz-adv-x="319" 
d="M0 0h321v-128h-321v128z" />
    <glyph glyph-name="exclamdown" unicode="&#xa1;" horiz-adv-x="201" 
d="M142 304h61l-84 -269q-3 -10 15 -13q13 -2 27 -2l-6 -20h-155l6 20q47 0 54 24l55 173l-70 -55l-10 10z" />
    <glyph glyph-name="cent" unicode="&#xa2;" horiz-adv-x="252" 
d="M211 0h-153l7 20q43 -2 52 27l12 40h-129l5 21q27 22 72 82q39 52 58 114h94q-26 -42 -83 -96q-37 -35 -112 -98v-2h105l21 69l78 76h6l-44 -145h54l-6 -21h-59l-15 -51q-4 -15 43 -16z" />
    <glyph glyph-name="sterling" unicode="&#xa3;" horiz-adv-x="248" 
d="M82 142l6 23q52 0 75 13q31 18 31 69q-4 18 -9 24q-9 14 -30 15q-32 1 -32 -19q-1 -5 5.5 -15.5t6.5 -18.5q0 -19 -21 -25q-14 -2 -25.5 6t-11.5 20q1 29 28 51q25 19 53 19q86 0 92 -71q5 -53 -81 -88v-2q41 -28 38 -60q-3 -41 -38 -69.5t-77 -28.5q-33 0 -58 11
q-34 15 -34 44q-1 45 36 48q12 1 23 -8.5t11 -22.5q0 -10 -12 -20t-12 -21q7 -13 28 -13q34 0 55 38q19 33 17 68q-5 24 -24 29q-11 4 -40 4z" />
    <glyph glyph-name="currency" unicode="&#xa4;" horiz-adv-x="1227" 
d="M500 1254l10 36q5 19 63 20q59 0 134.5 -20t153.5 -63t73 -64l-60 -3l-43 -124q76 -58 115 -150q31 -76 31 -153q0 -38 -8 -64q-43 -144 -104 -241q-16 -28 -103 -139q-59 -79 -93 -161q-14 -33 -32 -73l-21 -47q-38 0 -71 3q-82 5 -133 21q-86 24 -230 113q0 17 -3 54
q-1 6 2 61q3 67 3 113q0 63 -5 111q-10 91 -53 257q-13 51 -39 141q-9 23 -44 92q-5 10 -8 42q-4 37 0 68q12 92 22 117q18 44 80 78.5t146 34.5q100 0 190 -46zM468 1134l21 78l-20 11q-18 11 -110 40q-24 5 -49 5q-74 0 -140 -40q-47 -28 -58 -56q-8 -18 -17 -100
q-3 -28 16 -71q14 -31 27 -61l45 -61q115 249 285 255zM193 181q17 -13 67 -46q158 -90 301 -91q46 0 63 2l17 36q-13 -1 -29 -1q-80 0 -194 28q-102 25 -231 111zM468 1134zM675 1055q-60 15 -192 104l-7 -32q13 -12 60 -43q79 -45 130 -58q30 -7 82 -8q46 0 74 17l13 31
q-62 -17 -103 -17q-28 0 -57 6zM187 220l6 -39zM507 1251q12 -10 56 -38q83 -48 123 -62q30 -10 92 -18q45 -6 78 -5l11 33q-17 -1 -31 -1q-37 0 -135 23q-68 16 -186 98zM506 750l-47 -69l58 -28l47 69zM422 518l23 -16l63 89l37 -18l35 50l-37 18l47 69l38 -19l34 48
l-38 19l62 89l-23 16l-65 -93l-58 28l62 89l-23 16l-65 -93l-35 16l-34 -49l35 -15l-47 -69l-36 17l-33 -51l34 -16l-62 -89l23 -15l65 93l58 -28zM507 1251l8 30z" />
    <glyph glyph-name="yen" unicode="&#xa5;" horiz-adv-x="262" 
d="M90 420l173 -209q-69 -81 -81 -98q-35 -49 -36 -90q-1 -46 39 -103q5 -7 73 -88l-10 -10q-37 19 -76 19q-49 0 -71 -32q-17 -26 -17 -55q0 -60 61 -107l-7 -11q-62 49 -89 79q-46 52 -49 107q1 41 27 63t68 22q47 0 89 -22v0l-168 210q127 116 117 200q-5 41 -27 74
q-4 6 -54 70q21 3 38 -19z" />
    <glyph glyph-name="brokenbar" unicode="&#xa6;" horiz-adv-x="234" 
d="M28 126l60 178q34 -12 68 -11q29 1 80 11q-41 -56 -89 -56q-32 0 -56 12l-36 -105q39 28 84 27q35 0 55 -21.5t20 -56.5q0 -50 -40.5 -86t-91.5 -33q-77 4 -82 65q-1 13 9 26.5t25 14.5q13 0 19.5 -9t4.5 -21q-2 -11 -11 -22q-7 -14 -7 -15q0 -22 37 -21q33 1 58 45
q24 39 23 73q0 14 -12 26t-27 11q-36 -2 -71 -32h-20z" />
    <glyph glyph-name="section" unicode="&#xa7;" horiz-adv-x="208" 
d="M118 153q-22 7 -42 -32.5t-20 -78.5t27 -39q28 0 48 47q16 40 14 70q-1 11 -8.5 22t-18.5 11zM151 304q54 -3 59 -48q0 -15 -11 -28.5t-26 -15.5q-14 0 -24 8.5t-8 20.5q2 11 7 18q9 6 19 17q-2 9 -19 10q-59 0 -82 -139h1q41 36 79 34q52 -8 56 -60q3 -49 -32 -92.5
t-84 -43.5q-86 1 -86 105q0 79 46.5 148t104.5 66z" />
    <glyph glyph-name="dieresis" unicode="&#xa8;" horiz-adv-x="283" 
d="M133 426l152 -426h-74l-100 276l-85 -276h-26zM151 41q0 -16 -12.5 -28.5t-29.5 -12.5t-29 12.5t-12 28.5q0 17 11.5 29.5t29.5 12.5q17 0 29.5 -12.5t12.5 -29.5z" />
    <glyph glyph-name="copyright" unicode="&#xa9;" horiz-adv-x="179" 
d="M180 -468q0 -97 -29.5 -151t-111.5 -105l-3 -2q53 42 89 130q23 55 22 174v280l-147 -42v543h31v-211l149 38v-654zM150 -49v138l-119 -22v-146z" />
    <glyph glyph-name="ordfeminine" unicode="&#xaa;" horiz-adv-x="219" 
d="M137 286q-30 1 -52 -38q-18 -34 -20 -67q-2 -43 29 -47q28 -3 50 39q19 37 20 71q0 13 -7.5 27.5t-19.5 14.5zM128 304q93 0 92 -108q0 -68 -42 -133q-46 -70 -109 -78q-26 -3 -49 15.5t-20 42.5q0 29 27 29q26 0 25 -26q0 -3 -5 -27q-4 -16 12 -16q52 -1 89 131h-2
q-24 -14 -34 -19q-18 -9 -36 -10q-31 0 -49.5 19.5t-18.5 51.5q0 49 32.5 88.5t87.5 39.5z" />
    <glyph glyph-name="guillemotleft" unicode="&#xab;" horiz-adv-x="125" 
d="M127 1041q-29 -9 -50 -19q-50 -23 -57 -44q-10 -40 -9 -78q1 -30 6 -46q20 -69 28 -94q10 -30 31 -116q1 -6 1 -12q0 -53 -77 -119q129 39 129 100q0 5 -1 12q-13 59 -13 70q0 2 1 2v1q0 2 -20 70q-42 144 -42 159q0 10 7 39q10 38 66 75zM127 -18q-29 12 -50 23
q-50 29 -57 49q-10 40 -9 78q1 30 6 46q20 70 28 94q10 30 31 116q1 6 1 12q0 53 -77 113q129 -34 129 -94q0 -5 -1 -11q-13 -59 -13 -70q0 -2 1 -3v0q0 -3 -20 -71q-11 -38 -38 -124q-12 -37 -12 -53q0 -12 5 -31.5t76 -73.5z" />
    <glyph glyph-name="logicalnot" unicode="&#xac;" horiz-adv-x="416" 
d="M0 -159h154v222q52 27 80 52q31 31 63 61q75 74 121 169l-23 8q-51 -63 -62 -75q-46 -51 -83 -73q-77 -44 -250 -66v-298z" />
    <glyph glyph-name="uni00AD" unicode="&#xad;" 
d="M479 669l58 -49l-537 -620l-57 49zM-56 654l57 43l493 -654l-58 -43z" />
    <glyph glyph-name="registered" unicode="&#xae;" horiz-adv-x="398" 
d="M211 8l55 200q-48 -24 -114 -24q-32 0 -56.5 20t-24.5 50q0 29 17.5 49t45.5 19q26 0 41.5 -20.5t14.5 -46.5q0 -8 -4 -17t-2 -12q4 -11 23 -12q15 -1 41 18q20 15 34 34l55 200q-48 -24 -115 -24q-32 0 -56.5 20t-24.5 50q0 57 54 67q26 5 46 -14t20 -46q0 -16 -4 -22
l-2 -11q0 -7 14 -11q14 -3 21 0q45 14 92 87h17l-264 -955h-36l97 347q-48 -24 -115 -24q-32 0 -56.5 20t-24.5 50q0 29 18 49t45 19q25 0 41 -18.5t16 -44.5q0 -10 -3.5 -20.5t-2.5 -12.5q4 -11 22 -12q31 -2 75 48z" />
    <glyph glyph-name="macron" unicode="&#xaf;" horiz-adv-x="18" 
d="M173 -9h-18v1042h18v-1042zM18 -9h-18v1042h18v-1042z" />
    <glyph glyph-name="degree" unicode="&#xb0;" horiz-adv-x="809" 
d="M444 224q-39 -1 -38 -59q0 -20 5 -37q56 38 56 70q0 26 -23 26zM737 37q0 15 11 26t26 11t26 -11t11 -26t-10.5 -26t-26.5 -11q-15 0 -26 11t-11 26zM540 71l-94 -68q-8 -6 -16 -6q-31 0 -58 78l-86 -75q-9 0 -13.5 11.5t-7.5 22.5q-18 47 -54 67q-75 -101 -110 -101
q-17 0 -17 14q0 42 98 100q37 22 37 61q0 12 -10 33l-47 79q-9 15 -9 26q0 5 24 51q28 49 35 86q-60 -3 -110 -33q-59 -36 -59 -91q0 -39 30 -39q5 0 12 2q24 8 31 57l18 -1q2 -10 2 -21q0 -41 -20.5 -70.5t-49.5 -29.5q-33 0 -51 25t-14 58q1 66 69.5 114.5t154.5 47.5
q59 -1 107 -38q51 -39 57 -99q2 -22 -11.5 -39t-35.5 -18q-86 -3 -105 55l18 8q5 -15 30 -15q24 0 43 12q19 9 15 33q-9 60 -105 83l-34 -80q-2 -5 -2 -12q0 -12 11 -31l50 -85q11 -13 11 -30q0 -19 -20 -46q-16 -24 -33 -46q35 -4 64 -20q25 -13 48 -26q15 2 34 22
q-1 11 -1 24q0 50 21 89q26 46 70 50q19 2 32.5 -14t13.5 -34q-7 -50 -90 -103q18 -52 49 -56q37 3 72 41q-1 9 -2 20q0 47 31 88q30 38 78 60q2 24 -37 47.5t-82 23.5q-20 0 -37 -7q-27 -8 -74 -30q4 17 10 23q11 9 58 34q23 12 64 13q76 0 126 -47q66 -60 61 -186
q-2 -48 -31 -88q-32 -45 -78 -45q-30 0 -52 20.5t-29 50.5zM652 242q-63 -35 -71 -118q-3 -34 14 -65.5t40 -25.5q16 5 29 31.5t11 61.5q-3 55 -4 65q-5 29 -19 51z" />
    <glyph glyph-name="plusminus" unicode="&#xb1;" horiz-adv-x="623" 
d="M445 521h180l-446 -521h-179zM65 395q0 24 17 41.5t41 17.5t41 -17.5t17 -41.5t-17.5 -41t-40.5 -17q-24 0 -41 17t-17 41zM443 126q0 24 17.5 41t41.5 17t41 -17t17 -41t-17.5 -41t-40.5 -17q-24 0 -41.5 17t-17.5 41z" />
    <glyph glyph-name="uni00B2" unicode="&#xb2;" horiz-adv-x="114" 
d="M117 183zM73 -83v146l42 12v102l-42 -10v191h-31v-199l-42 -12v-103l42 11v-146l-42 -11v-107l42 11v-191h31v200l42 11v106z" />
    <glyph glyph-name="uni00B3" unicode="&#xb3;" horiz-adv-x="283" 
d="M152 0l-152 426h74l100 -276l85 276h26zM134 385q0 16 12.5 28.5t29.5 12.5t29 -12.5t12 -28.5q0 -17 -11.5 -29.5t-29.5 -12.5q-17 0 -29.5 12.5t-12.5 29.5z" />
    <glyph glyph-name="acute" unicode="&#xb4;" horiz-adv-x="271" 
d="M180 -134l-7 62q-2 14 -12 26t-25 11q-30 -2 -36 -38l-11 -61h-89v88l57 12q37 8 37 37q0 31 -37 36l-57 8v87h89l10 -61q6 -39 37 -37t36 38l8 60h92v-88l-58 -10q-37 -6 -37 -37q0 -30 39 -36l56 -9v-88h-92z" />
    <glyph glyph-name="mu" unicode="&#xb5;" horiz-adv-x="871" 
d="M570 105l-82 -97q-14 -16 -29 -3l-109 95q-11 9 -20 10q-5 0 -9 -5l-83 -97q-13 -16 -29 -3l-109 95q-12 10 -20 11q-6 0 -10 -6l-70 -82v59l133 157q5 6 11 6q7 0 20 -12l108 -95q6 -7 13 -7q9 0 17 10l82 98q5 5 10 5q8 0 21 -11l108 -95q6 -7 13 -7q9 0 17 10l82 98
q4 5 9 5t19 -13l108 -95q15 -13 30 3l71 83v-58l-134 -156q-14 -16 -28 -3l-109 95q-12 10 -20 11q-7 -1 -11 -6z" />
    <glyph glyph-name="mu" unicode="&#x3bc;" horiz-adv-x="871" 
d="M570 105l-82 -97q-14 -16 -29 -3l-109 95q-11 9 -20 10q-5 0 -9 -5l-83 -97q-13 -16 -29 -3l-109 95q-12 10 -20 11q-6 0 -10 -6l-70 -82v59l133 157q5 6 11 6q7 0 20 -12l108 -95q6 -7 13 -7q9 0 17 10l82 98q5 5 10 5q8 0 21 -11l108 -95q6 -7 13 -7q9 0 17 10l82 98
q4 5 9 5t19 -13l108 -95q15 -13 30 3l71 83v-58l-134 -156q-14 -16 -28 -3l-109 95q-12 10 -20 11q-7 -1 -11 -6z" />
    <glyph glyph-name="paragraph" unicode="&#xb6;" horiz-adv-x="237" 
d="M126 0h-98q6 31 58 100q6 8 65 72q33 36 53 85l-2 2q-44 -39 -73 -36q-4 1 -27 16q-15 10 -28 8q-37 -5 -54 -62h-20l37 119h20q-8 -12 -8 -20q0 -9 10 -15q15 11 24 20q16 12 40 15q14 -1 33 -19q15 -15 31 -16q25 0 32 35h20q-7 -44 -32 -92q-24 -42 -47 -85
q-29 -54 -34 -127z" />
    <glyph glyph-name="periodcentered" unicode="&#xb7;" horiz-adv-x="464" 
d="M38 -1024h-38v1024h38v-1024z" />
    <glyph glyph-name="periodcentered" unicode="&#x2219;" horiz-adv-x="464" 
d="M38 -1024h-38v1024h38v-1024z" />
    <glyph glyph-name="cedilla" unicode="&#xb8;" horiz-adv-x="537" 
d="M539 0h-35v214h-221h-247v-214h-36v340h283q128 0 256 1v-341zM324 80q0 -22 -16 -37t-40 -15q-26 0 -42 15t-16 37q0 19 16.5 34t41.5 15q24 0 40 -15t16 -34z" />
    <glyph glyph-name="uni00B9" unicode="&#xb9;" horiz-adv-x="537" 
d="M0 340h35v-214h221h247v214h36v-340h-283q-128 0 -256 -1v341zM215 260q0 22 16 37t39 15q26 0 42.5 -15t16.5 -37q0 -19 -16.5 -34t-42.5 -15q-24 0 -39.5 15t-15.5 34z" />
    <glyph glyph-name="ordmasculine" unicode="&#xba;" horiz-adv-x="237" 
d="M77 -15q-35 0 -57 28q-19 26 -20 63q-2 76 41 147q49 81 122 81q36 0 55.5 -26t20.5 -62q2 -77 -41 -149q-48 -82 -121 -82zM79 3q47 0 81 106q28 84 27 139q0 38 -25 38q-48 0 -83 -105q-29 -85 -28 -140q0 -14 9 -26t19 -12z" />
    <glyph glyph-name="guillemotright" unicode="&#xbb;" horiz-adv-x="871" 
d="M537 274l2 7q5 8 22 8q15 0 20 -9q2 -2 2 -6v-305l-1 -4q-1 -12 -23 -12q-19 0 -21 11q0 2 -1 5v305zM570 105l-82 -97q-14 -16 -29 -3l-109 95q-11 9 -20 10q-5 0 -9 -5l-83 -97q-13 -16 -29 -3l-109 95q-12 10 -20 11q-6 0 -10 -6l-70 -82v59l133 157q5 6 11 6
q7 0 20 -12l108 -95q6 -7 13 -7q9 0 17 10l82 98q5 5 10 5q8 0 21 -11l108 -95q6 -7 13 -7q9 0 17 10l82 98q4 5 9 5t19 -13l108 -95q15 -13 30 3l71 83v-58l-134 -156q-14 -16 -28 -3l-109 95q-12 10 -20 11q-7 -1 -11 -6z" />
    <glyph glyph-name="onequarter" unicode="&#xbc;" horiz-adv-x="350" 
d="M3 196q-6 16 4 29q6 7 26 15q8 3 50 3l13 46q3 9 39 10q38 0 36 -7l-14 -51l19 6l18 4q60 14 106 -26q27 16 50 17q22 0 42 -14q24 -17 22 -35q-1 -9 -8 -16q-9 -8 -18 -9q-9 0 -13 3q-8 3 -10 11q-1 5 2 12q5 6 6 12q-5 11 -31 11q-3 0 -16 -7q-12 -6 -16 -19l-48 -182
q-6 -8 -40 -9q-31 -1 -34 11l45 180q4 15 4 23q-1 5 -5 8q-11 23 -50 11l-19 -13l-17 -16l-20 -74q46 -28 49 -52q4 -28 -24 -54q-25 -24 -62 -24q-25 0 -38 18.5t-13 44.5q0 11 3 29l13 55q-33 24 -37 27q-10 11 -14 22zM23 190q5 -6 17 -14q9 -7 19 -12l18 62q-20 2 -28 1
q-20 0 -27 -12q-6 -13 1 -25zM120 35q12 0 18 12q10 17 9 27q-2 17 -26 34l-3 -8q-4 -9 -5 -13q-5 -12 -6 -20t-1 -17q1 -15 14 -15z" />
    <glyph glyph-name="onehalf" unicode="&#xbd;" horiz-adv-x="619" 
d="M122 305l-6 12q-117 -126 -117 -342q0 -207 119 -325l4 12q-44 50 -61 137q-11 61 -11 172q0 128 8 181q15 90 64 153zM498 323l6 12q117 -127 117 -342q0 -207 -118 -326l-5 12q44 49 60 138q11 61 11 172q0 127 -8 179q-14 92 -63 155zM260 63v-146l70 17v147z
M330 -356v184l-70 -17v-200h-31v191l-42 -11v107l42 11v146l-42 -11v103l42 12v199h31v-191l70 17v199h30v-192l46 12v-104l-46 -11v-146l46 11v-107l-46 -11v-191h-30z" />
    <glyph glyph-name="threequarters" unicode="&#xbe;" horiz-adv-x="576" 
d="M114 367l-6 9q-109 -94 -109 -256q0 -155 111 -245l4 9q-41 38 -57 104q-10 46 -10 129q0 95 7 135q14 68 60 115zM463 380l6 9q109 -95 109 -257q0 -155 -111 -244l-4 10q41 37 56 102q10 47 10 130q0 95 -7 134q-13 69 -59 116zM206 -182v634h31v-350q50 39 91 39
q31 0 56.5 -26t24.5 -60q-1 -40 -36 -81q-19 -22 -67 -59q-35 -28 -100 -97zM237 56v-171q52 61 60 74q36 50 36 87q0 49 -40 55q-16 3 -36 -15.5t-20 -29.5z" />
    <glyph glyph-name="questiondown" unicode="&#xbf;" horiz-adv-x="306" 
d="M154 28l98 98l28 -28l-99 -98l99 -98l-28 -28l-98 98l-99 -98l-27 28l98 98l-98 98l27 28z" />
    <glyph glyph-name="Agrave" unicode="&#xc0;" horiz-adv-x="609" 
d="M123 312l-6 13q-117 -126 -117 -342q0 -207 119 -326l4 12q-44 50 -61 137q-11 61 -11 172q0 128 8 181q15 90 64 153zM487 334l7 12q117 -127 116 -342q0 -207 -117 -326l-6 13q44 49 61 137q11 61 11 172q0 127 -8 179q-15 92 -64 155zM237 52v-134l118 30v134z
M206 -185v543h31v-211l149 38v-543h-31v211z" />
    <glyph glyph-name="Aacute" unicode="&#xc1;" horiz-adv-x="709" 
d="M556 241h84l2 -32h-92l-23 -110q-20 -96 -58 -164q-53 -95 -130 -100q-31 -2 -56 18.5t-28 52.5q-4 52 42 58q19 2 34 -11.5t14 -33.5q0 -13 -27 -41q-7 -3 -5 -10t11 -7q52 0 84 134q22 106 43 214h-156l-23 -110q-20 -96 -58 -164q-54 -95 -130 -100q-31 -2 -56 18.5
t-28 52.5q-5 52 42 58q19 2 33.5 -11.5t14.5 -33.5q0 -13 -28 -41q-6 -3 -4 -10t11 -7q52 0 84 134q22 106 43 214h-64l-3 32h76q20 65 66 108q51 47 116 47q47 0 67 -44q3 -10 3 -21q0 -48 -48 -58q-14 0 -25.5 11.5t-10.5 25.5q1 20 21 33.5t19 16.5q-1 11 -24 14
q-32 3 -58 -47q-17 -32 -30 -86h159q20 65 66 108q52 47 116 47q47 0 68 -44q2 -10 2 -21q0 -48 -48 -58q-14 0 -25.5 11.5t-10.5 25.5q1 20 21 33.5t20 16.5q-2 11 -25 14q-32 3 -58 -47q-18 -32 -30 -86z" />
    <glyph glyph-name="Acircumflex" unicode="&#xc2;" horiz-adv-x="753" 
d="M288 224q-40 5 -64 -72q-17 -57 -13 -100q4 -37 27 -37q32 0 56 76q22 66 17 103q-3 30 -23 30zM554 15l-32 -113q-2 -14 12 -15h47v-30h-223v30h50q22 0 22 20l83 297q2 8 -2.5 14t-8.5 6q-30 0 -76 -112h-24q55 143 129 143q28 0 35 -40q70 40 99 40q83 0 91 -97
q5 -59 -34 -115q-42 -59 -100 -59q-35 -1 -68 31zM648 224q-39 5 -62 -72q-17 -57 -14 -100q4 -37 26 -37q33 0 56 76q22 66 18 103q-4 30 -24 30zM194 15l-33 -113q-2 -14 12 -15h47v-30h-223v30h50q20 0 23 20l83 297q2 8 -3 14t-10 6q-29 0 -74 -112h-24q55 143 129 143
q27 0 35 -40q70 40 98 40q83 0 91 -97q5 -59 -34 -115q-42 -59 -101 -59q-33 -1 -66 31z" />
    <glyph glyph-name="Atilde" unicode="&#xc3;" horiz-adv-x="1476" 
d="M647 227q-39 5 -62 -71q-18 -58 -14 -101q3 -36 26 -36q32 0 56 75q22 66 18 103q-4 30 -24 30zM913 19l-31 -113q-2 -15 11 -16h47v-30h-222v30h50q20 0 22 20l82 297q2 8 -2.5 14t-8.5 6q-30 0 -76 -112h-22q54 143 128 143q28 0 35 -40q70 40 98 40q83 0 91 -97
q5 -59 -34 -115q-41 -58 -100 -58q-35 -1 -68 31zM1275 19l-33 -113q-2 -15 12 -16h48v-30h-224v30h50q20 0 23 20l82 297q2 8 -2 14t-9 6q-29 0 -76 -112h-23q55 143 128 143q28 0 36 -40q69 40 98 40q82 0 92 -97q5 -59 -34 -115q-42 -58 -102 -58q-33 -1 -66 31z
M1008 227q-39 5 -63 -71q-17 -58 -13 -101q4 -36 25 -36q33 0 57 75q22 66 17 103q-3 30 -23 30zM1369 227q-40 5 -63 -71q-17 -58 -14 -101q4 -36 27 -36q32 0 56 75q22 66 18 103q-4 30 -24 30zM553 19l-33 -113q-2 -15 12 -16h48v-30h-224v30h51q20 0 22 20l83 297
q2 8 -2.5 14t-9.5 6q-29 0 -75 -112h-24q55 143 129 143q27 0 35 -40q70 40 99 40q83 0 91 -97q5 -59 -34 -115q-42 -58 -100 -58q-35 -1 -68 31zM291 227q-39 5 -63 -71q-17 -58 -13 -101q4 -36 27 -36q32 0 56 75q20 66 17 103q-4 30 -24 30zM69 115h-23q55 143 128 143
q28 0 35 -40q70 40 98 40q83 0 91 -97q5 -59 -33 -115q-41 -58 -101 -58q-35 0 -67 31l-32 -113q-2 -15 11 -16h47v-30h-222v30h50q20 0 22 20l83 297q2 8 -3 14t-9 6q-29 1 -75 -112z" />
    <glyph glyph-name="Adieresis" unicode="&#xc4;" horiz-adv-x="167" 
d="M169 -279l-8 -10q-161 108 -161 289q0 174 163 274l6 -10q-60 -42 -83 -114q-15 -53 -15 -147q0 -106 11 -151q19 -78 87 -131z" />
    <glyph glyph-name="Aring" unicode="&#xc5;" horiz-adv-x="167" 
d="M0 -269l-6 10q61 43 84 116q15 52 15 143q0 109 -12 158q-22 80 -87 126l8 10q44 -20 90 -82q71 -92 71 -211q0 -84 -44 -155.5t-119 -114.5z" />
    <glyph glyph-name="AE" unicode="&#xc6;" horiz-adv-x="411" 
d="M237 308zM30 328h351v42h32v-375h-31v41h-352v-41h-30v375h30v-42zM380 119v126h-350v-126h350z" />
    <glyph glyph-name="Ccedilla" unicode="&#xc7;" horiz-adv-x="279" 
d="M26 -145h-26v183h26v-21q85 48 120 79q56 47 87 115q23 49 25 104q2 56 -4 74l8 12q16 -57 17 -92q0 -136 -78 -233q-26 -33 -123 -119q-40 -35 -52 -102z" />
    <glyph glyph-name="Egrave" unicode="&#xc8;" horiz-adv-x="1476" 
d="M647 227q-39 5 -62 -71q-18 -58 -14 -101q3 -36 26 -36q32 0 56 75q22 66 18 103q-4 30 -24 30zM913 19l-31 -113q-2 -15 11 -16h47v-30h-222v30h50q20 0 22 20l82 297q2 8 -2.5 14t-8.5 6q-30 0 -76 -112h-22q54 143 128 143q28 0 35 -40q70 40 98 40q83 0 91 -97
q5 -59 -34 -115q-41 -58 -100 -58q-35 -1 -68 31zM1151 -90zM1008 227q-39 5 -63 -71q-17 -58 -13 -101q4 -36 25 -36q33 0 57 75q22 66 17 103q-3 30 -23 30zM553 19l-33 -113q-2 -15 12 -16h48v-30h-224v30h51q20 0 22 20l83 297q2 8 -2.5 14t-9.5 6q-29 0 -75 -112h-24
q55 143 129 143q27 0 35 -40q70 40 99 40q83 0 91 -97q5 -59 -34 -115q-42 -58 -100 -58q-35 -1 -68 31zM291 227q-39 5 -63 -71q-17 -58 -13 -101q4 -36 27 -36q32 0 56 75q20 66 17 103q-4 30 -24 30zM69 115h-23q55 143 128 143q28 0 35 -40q70 40 98 40q83 0 91 -97
q5 -59 -33 -115q-41 -58 -101 -58q-35 0 -67 31l-32 -113q-2 -15 11 -16h47v-30h-222v30h50q20 0 22 20l83 297q2 8 -3 14t-9 6q-29 1 -75 -112z" />
    <glyph glyph-name="Eacute" unicode="&#xc9;" horiz-adv-x="306" 
d="M-6 -29q10 76 78 121q55 37 129 44q45 4 68 -14q40 -30 40 -72q0 -10 -2 -22q-10 -77 -78 -124q-56 -39 -123 -42q-52 -3 -74 14q-40 30 -40 74q0 9 2 21zM116 57q-84 -61 -84 -112q0 -8 2 -18q4 -20 27 -24t36 -4q42 0 109 50q75 56 75 95q0 9 -4 26t-23 23
q-35 11 -44 11q-31 0 -94 -47z" />
    <glyph glyph-name="Ecircumflex" unicode="&#xca;" horiz-adv-x="559" 
d="M359 -555q95 -100 128 -128q72 -90 72 -184q0 -56 -18 -117l-13 16q6 37 4 90q-2 65 -63 140q-46 56 -162 123q1 -52 31 -108q27 -48 63 -81q72 -65 105 -104q53 -67 53 -182q0 -85 -37 -146l-9 17q23 42 19 123q-1 27 -15 70t-31 62q-25 30 -83 69q-48 31 -96 61v-20
h-25v853h25q5 -86 52 -128q89 -80 128 -128q72 -90 72 -184q0 -56 -18 -117l-13 16q6 37 4 90q-2 65 -63 140q-46 56 -162 123q1 -52 31 -108q27 -48 63 -81q72 -65 105 -104q53 -67 53 -182q0 -70 -24 -110l-10 17q9 38 7 87q-1 27 -15 70t-31 62q-25 30 -83 69
q-48 31 -96 61l1 -20q7 -80 51 -127z" />
    <glyph glyph-name="Edieresis" unicode="&#xcb;" horiz-adv-x="285" 
d="M27 0q12 67 52 102q97 86 123 119q78 99 78 234q0 35 -17 92l-8 -12q6 -17 4 -74q-2 -55 -25 -105q-31 -68 -87 -114q-36 -31 -120 -79q1 52 30 107q27 48 64 81q72 65 104 105q55 69 59 179q3 90 -19 131l-11 -14q11 -27 8 -108q-3 -84 -35 -123q-25 -30 -94 -74
l-106 -66l3 32q19 62 49 91q99 88 123 119q78 99 78 233q0 35 -17 92l-8 -12q6 -17 4 -74q-2 -55 -25 -104q-31 -68 -87 -115q-36 -31 -120 -79q1 52 30 108q27 48 64 81q72 65 104 104q55 69 59 179q3 103 -26 145l-11 -15q18 -40 15 -120q-3 -84 -35 -123q-25 -30 -94 -74
q-53 -33 -106 -67v21h-26l-1 -803h27z" />
    <glyph glyph-name="Igrave" unicode="&#xcc;" horiz-adv-x="319" 
d="M174 88v-146l71 17v146zM73 62v-146l70 18v147zM245 -331v185l-71 -19v-199h-31v192l-70 -18v-199h-31v191l-42 -11v107l42 11v146l-42 -11v103l42 12v199h31v-192l69 17l1 201h30v-193l72 19v199h30v-192l46 11v-103l-46 -11v-147l46 11v-106l-46 -11v-192h-30z" />
    <glyph glyph-name="Iacute" unicode="&#xcd;" horiz-adv-x="201" 
d="M203 -182v634h-31v-350q-50 39 -91 39q-31 0 -56.5 -26t-24.5 -60q1 -40 36 -81q19 -22 66 -59q36 -28 101 -97zM172 56v-171q-52 61 -60 74q-36 50 -36 87q0 49 40 55q16 3 36 -15.5t20 -29.5z" />
    <glyph glyph-name="Icircumflex" unicode="&#xce;" horiz-adv-x="450" 
d="M203 -182v634h-31v-350q-50 39 -91 39q-31 0 -56 -26t-25 -60q0 -40 36 -81q17 -19 66 -59q36 -28 101 -97zM172 56v-171q-52 61 -60 74q-36 50 -36 87q0 49 40 55q16 3 36 -15.5t20 -29.5zM249 -182v634h31v-350q50 39 91 39q31 0 56 -26t25 -60q0 -42 -36 -81
q-20 -23 -67 -59q-35 -28 -100 -97zM280 56v-171q52 61 60 74q36 50 36 87q0 48 -40 55q-16 3 -36 -15.5t-20 -29.5z" />
    <glyph glyph-name="Idieresis" unicode="&#xcf;" horiz-adv-x="29" 
d="M-70 247l85 132l85 -131l-12 5q-18 8 -20 9q-16 3 -23 2q-13 -4 -14 -12v-252h-31v251q-1 8 -14 12q-6 2 -23 -2q-2 -1 -20 -9q-13 -4 -13 -5z" />
    <glyph glyph-name="Eth" unicode="&#xd0;" horiz-adv-x="29" 
d="M-70 132l85 -132l85 131l-12 -5q-18 -8 -20 -9q-16 -3 -23 -2q-13 4 -14 12v252h-31v-251q-1 -8 -14 -12q-6 -2 -23 2q-2 1 -20 9q-13 4 -13 5z" />
    <glyph glyph-name="Ntilde" unicode="&#xd1;" horiz-adv-x="483" 
d="M361 306l7 12q117 -126 116 -342q0 -207 -118 -325l-5 12q44 50 61 137q11 61 11 172q0 128 -8 181q-15 90 -64 153zM123 305l-6 12q-117 -126 -117 -342q0 -207 119 -325l4 12q-44 50 -61 137q-11 61 -11 172q0 128 8 181q15 90 64 153zM301 183zM257 -83v146l42 12v102
l-42 -10v191h-31v-199l-42 -12v-103l42 11v-146l-42 -11v-107l42 11v-191h31v200l42 11v106z" />
    <glyph glyph-name="Ograve" unicode="&#xd2;" horiz-adv-x="688" 
d="M566 306l6 12q117 -126 117 -342q0 -207 -119 -325l-4 12q44 50 61 137q11 61 11 172q0 128 -8 181q-15 90 -64 153zM123 305l-6 12q-117 -126 -117 -342q0 -207 119 -325l4 12q-44 50 -61 137q-11 61 -11 172q0 128 8 181q15 90 64 153zM358 88v-146l71 17v146zM257 62
v-146l71 18v147zM429 -331v185l-71 -19v-199h-30v192l-71 -18v-199h-31v191l-42 -11v107l42 11v146l-42 -11v103l42 12v199h31v-192l70 17l1 201h29v-193l72 19v199h31v-192l45 11v-103l-45 -11v-147l45 11v-106l-45 -11v-192h-31z" />
    <glyph glyph-name="Oacute" unicode="&#xd3;" horiz-adv-x="576" 
d="M463 367l6 9q109 -94 109 -256q0 -155 -111 -245l-4 9q41 38 56 104q10 46 10 129q0 95 -7 135q-13 68 -59 115zM115 367l-6 9q-109 -94 -109 -256q0 -155 111 -245l4 9q-41 38 -57 104q-10 46 -10 129q0 95 7 135q14 68 60 115zM371 -182v634h-31v-350q-50 39 -91 39
q-31 0 -56.5 -26t-24.5 -60q1 -40 36 -81q19 -22 66 -59q36 -28 101 -97zM340 56v-171q-52 61 -60 74q-36 50 -36 87q0 49 40 55q16 3 36 -15.5t20 -29.5z" />
    <glyph glyph-name="Ocircumflex" unicode="&#xd4;" horiz-adv-x="786" 
d="M673 367l6 9q109 -94 108 -256q0 -155 -110 -245l-4 9q41 38 56 104q10 46 10 129q0 95 -7 135q-13 68 -59 115zM115 367l-6 9q-109 -94 -109 -256q0 -155 111 -245l4 9q-41 38 -57 104q-10 46 -10 129q0 95 7 135q14 68 60 115zM371 -182v634h-31v-350q-50 39 -91 39
q-31 0 -56 -26t-25 -60q0 -40 36 -81q17 -19 66 -59q36 -28 101 -97zM340 56v-171q-52 61 -60 74q-36 50 -36 87q0 49 40 55q16 3 36 -15.5t20 -29.5zM417 -182v634h30v-350q50 39 92 39q31 0 56 -26t25 -60q0 -42 -36 -81q-20 -23 -67 -59q-35 -28 -100 -97zM447 56v-171
q52 61 61 74q36 50 36 87q0 48 -40 55q-16 3 -36.5 -15.5t-20.5 -29.5z" />
    <glyph glyph-name="Otilde" unicode="&#xd5;" horiz-adv-x="629" 
d="M462 -280l8 -10q161 108 161 289q0 174 -163 274l-6 -10q60 -42 83 -115q15 -53 15 -146q0 -106 -11 -152q-19 -77 -87 -130zM169 -279l-8 -10q-161 108 -161 289q0 174 163 274l6 -10q-60 -42 -83 -114q-15 -53 -15 -147q0 -106 11 -151q19 -78 87 -131zM359 -134l-7 62
q-2 14 -12 26t-25 11q-30 -2 -35 -38l-12 -61h-89v88l58 12q37 8 36 37q0 31 -36 36l-58 8v87h89l11 -61q6 -39 36 -37q31 2 36 38l8 60h93v-88l-59 -10q-37 -6 -37 -37q0 -30 39 -36l57 -9v-88h-93z" />
    <glyph glyph-name="Odieresis" unicode="&#xd6;" horiz-adv-x="306" 
d="M58 13q57 -51 109 -108q38 44 82 82q-57 51 -109 108q-38 -44 -82 -82zM12 12q70 59 129 129q8 12 12.5 12.5t12.5 -12.5q59 -70 129 -129q12 -8 12 -12t-12 -12q-70 -59 -129 -129q-8 -12 -12 -12.5t-13 12.5q-59 70 -129 129q-12 8 -12 12t12 12z" />
    <glyph glyph-name="multiply" unicode="&#xd7;" horiz-adv-x="306" 
d="M28 126h252v-252h-252v252z" />
    <glyph glyph-name="Oslash" unicode="&#xd8;" horiz-adv-x="603" 
d="M581 241q0 31 -20 30q-27 0 -61.5 -46t-34.5 -73q0 -22 25 -22q33 0 63 40q28 37 28 71zM113 12q40 0 71.5 26.5t31.5 65.5q0 33 -33 57q-28 19 -54 19q-30 0 -59.5 -36t-29.5 -68q0 -30 20.5 -47t52.5 -17zM297 167l36 90q4 11 -4 11q-6 0 -24.5 -10.5t-22.5 -15.5
q-1 -1 12 -3q12 -1 12 0q0 10 15 28.5t26 18.5q12 0 12 -13q0 -3 -3 -15l-33 -87q-4 -12 -4 -23q2 -13 17 -13q29 0 58.5 39t29.5 69q0 9 -5 15.5t-5 14.5q0 15 11 16q14 0 14 -25q0 -41 -36.5 -90t-76.5 -49q-31 0 -31 30q0 2 2 12zM95 179l18 5q-66 24 -66 75q0 7 1 15
q8 42 51 70q40 25 84 25q39 0 65 -17q30 -19 30 -54q0 -7 -2 -14q-5 -27 -28 -43q-9 -8 -48 -27l-20 -9q77 -19 77 -81q0 -54 -49 -91q-45 -33 -102 -33q-40 0 -70 22q-34 24 -34 60q0 60 93 97zM175 359q-31 0 -57.5 -18.5t-31.5 -48.5q-5 -33 21 -56.5t59 -23.5
q29 0 53.5 28t24.5 58q0 28 -19 44.5t-50 16.5zM451 207l36 121q5 16 6 18q0 6 -11.5 6t-11.5 4q0 6 11 6q20 0 35 9q2 2 4 2q3 0 3 -4l-47 -160q13 26 38 51q31 29 53 29q35 0 35 -46q0 -44 -35.5 -81t-79.5 -37q-46 0 -46 41q1 10 10 41z" />
    <glyph glyph-name="Ugrave" unicode="&#xd9;" horiz-adv-x="306" 
d="M54 99v-198h199v198h-199zM28 126h252v-252h-252v252z" />
    <glyph glyph-name="Uacute" unicode="&#xda;" horiz-adv-x="24" 
d="M0 -39h26v-227h-26v227z" />
    <glyph glyph-name="Ucircumflex" unicode="&#xdb;" horiz-adv-x="306" 
d="M282 266h25v-216h-25v216z" />
    <glyph glyph-name="Udieresis" unicode="&#xdc;" horiz-adv-x="306" 
d="M28 0q0 52 36.5 89t89 37t89.5 -37t37 -89t-37 -89t-89.5 -37t-89 37t-36.5 89z" />
    <glyph glyph-name="Yacute" unicode="&#xdd;" horiz-adv-x="559" 
d="M282 -554v554h23q2 -30 17 -50q9 -12 37 -39q95 -86 135 -137q66 -86 65 -175q0 -56 -18 -117l-13 16q4 28 4 71q0 92 -72 169q-51 54 -153 112q5 -74 52 -117q99 -91 135 -137q66 -85 65 -176q0 -56 -18 -116l-13 16q4 28 4 71q0 92 -72 169q-51 54 -153 112
q2 -36 22.5 -77t47.5 -65q102 -92 143 -141q31 -37 41 -72q10 -31 10 -82q0 -124 -30 -175h-17q25 39 25 134q0 54 -5 78q-15 72 -129 150q-22 15 -108 72v-48h-25zM282 -554h25h-25z" />
    <glyph glyph-name="Thorn" unicode="&#xde;" horiz-adv-x="288" 
d="M26 546v-41q36 24 107 72q114 79 129 150q5 24 5 78q0 95 -24 134h16q31 -51 31 -175q0 -51 -10 -82q-10 -35 -41 -72q-41 -49 -144 -141q-27 -24 -47 -65.5t-22 -76.5q101 58 152 112q73 77 73 169q0 43 -4 71l12 16q18 -60 19 -116q0 -90 -66 -176q-35 -46 -134 -137
q-47 -44 -52 -118q101 58 152 113q73 77 73 169q0 43 -4 71l12 16q18 -60 19 -117q0 -89 -66 -175q-39 -51 -134 -137q-29 -27 -38 -39q-14 -20 -16 -50h-24v547h26zM26 546h-26h26z" />
    <glyph glyph-name="germandbls" unicode="&#xdf;" horiz-adv-x="761" 
d="M558 171l-143 -164q-16 -14 -26 -4l-91 82q-16 14 -26 4l-70 -82q-15 -14 -25 -4l-92 82q-15 14 -25 4l-60 -70v51l114 131q15 14 24 4l91 -82q16 -14 26 -4l71 82q15 14 25 4l91 -82q15 -14 25 -4l60 69q101 118 236 185q-101 -83 -205 -202z" />
    <glyph glyph-name="agrave" unicode="&#xe0;" horiz-adv-x="102" 
d="M98 -164h-92q-8 0 -5 5l42 152q2 7 10 7q6 0 13 -7l37 -151q2 -6 -5 -6z" />
    <glyph glyph-name="aacute" unicode="&#xe1;" horiz-adv-x="173" 
d="M71 -6v204q0 7 5 10t12 3t12 -3t5 -10v-204q0 -7 -5 -10t-12 -3t-12 3t-5 10zM85 54q-24 0 -38.5 -15.5t-14.5 -41.5q0 -25 15 -40.5t39 -15.5q27 0 42 17t13 46q-5 51 -56 50zM87 -89q-36 -1 -60.5 24t-26.5 63q-1 38 24.5 64t62.5 26q35 0 60 -23.5t27 -58.5
q2 -39 -23 -66.5t-64 -28.5z" />
    <glyph glyph-name="acircumflex" unicode="&#xe2;" horiz-adv-x="176" 
d="M94 -17h-204q-7 0 -10.5 5t-3.5 12t3.5 11.5t10.5 4.5h204q7 0 9.5 -5t2.5 -11.5t-2.5 -11.5t-9.5 -5zM34 -4q0 -24 16 -38t41 -14t40 14.5t16 38.5q0 27 -17 42.5t-46 13.5q-51 -5 -50 -57zM177 -1q1 -37 -24 -61.5t-63 -25.5t-64 24t-26 63q0 35 23 59.5t59 26.5
q39 3 66.5 -22.5t28.5 -63.5z" />
    <glyph glyph-name="atilde" unicode="&#xe3;" horiz-adv-x="442" 
d="M78 122q9 -31 25 -45q42 -31 110 -31q128 -1 147 76q-31 -15 -48 -21q-41 -13 -98 -12q-48 1 -82 10q-21 6 -54 23zM0 231q51 -51 85 -67q53 -30 129 -32q90 -2 155 38q27 16 74 61q-31 -231 -232 -231q-105 0 -171 95q-26 42 -40 136z" />
    <glyph glyph-name="adieresis" unicode="&#xe4;" horiz-adv-x="102" 
d="M6 164h92q8 0 5 -5l-42 -152q-2 -7 -10 -7q-6 0 -12 7l-38 151q-2 6 5 6z" />
    <glyph glyph-name="aring" unicode="&#xe5;" horiz-adv-x="534" 
d="M268 57l-97 -79q-51 -41 -81 -37t-46 26q-13 20 -13 47q1 23 11 38q12 17 33 17q9 0 26 -14.5t33 -14.5q29 0 39 30q5 27 -19 43q-22 13 -49 12q-50 -3 -78.5 -42.5t-26.5 -94.5q3 -97 113 -114q71 -2 153 69l94 81q50 43 81 36q31 -3 48 -25q14 -19 15 -46
q0 -22 -11 -40.5t-33 -17.5q-8 0 -26 14.5t-36 14.5q-15 0 -26.5 -11t-11.5 -28q0 -23 25 -35q19 -11 42 -11q47 0 78 40q28 35 30 87q3 50 -33.5 87t-82.5 37q-67 0 -151 -69z" />
    <glyph glyph-name="ae" unicode="&#xe6;" horiz-adv-x="452" 
d="M210 -15h-69q0 -27 10 -94q5 -26 20 -43q17 -20 39 -20v157zM312 -15h-68v-157q20 0 38 20q15 17 21 43.5t9 93.5zM244 16h68q0 27 -9 94q-6 26 -22.5 44.5t-36.5 18.5v-157zM141 16h69v157q-22 0 -38 -19t-21 -44q-7 -29 -10 -94zM209 -287l1 85q-67 12 -112 73
q-14 19 -26 54t-13 60h-59v31h59q1 25 13 60t26 54q45 60 112 73l-3 97h34l3 -97q68 -12 111 -73q14 -19 26 -54.5t13 -59.5h60v-31h-60q-1 -24 -12.5 -59.5t-26.5 -54.5q-44 -60 -111 -73l-1 -85h-34z" />
    <glyph glyph-name="ccedilla" unicode="&#xe7;" horiz-adv-x="319" 
d="M0 0h321v-127l-321 -1v128z" />
    <glyph glyph-name="egrave" unicode="&#xe8;" horiz-adv-x="306" 
d="M54 0q0 -41 29.5 -70t70.5 -29t70 29t29 70t-29 70t-70 29t-70.5 -29t-29.5 -70zM28 0q0 52 36.5 89t89 37t89.5 -37t37 -89t-37 -89t-89.5 -37t-89 37t-36.5 89z" />
    <glyph glyph-name="eacute" unicode="&#xe9;" horiz-adv-x="306" 
d="M178 0l60 -59q18 27 18 59.5t-18 58.5zM238 59zM178 0zM154 -25l-60 -59q27 -18 59.5 -18t59.5 18zM213 -84zM154 -25zM129 0l-59 59q-18 -27 -18.5 -59.5t18.5 -58.5zM70 -59zM129 0zM25 0q0 53 37.5 91t91 38t91.5 -38t38 -91t-38 -91t-91.5 -38t-91 38t-37.5 91z
M154 25l59 59q-27 18 -59.5 18t-59.5 -18zM94 84zM154 25z" />
    <glyph glyph-name="ecircumflex" unicode="&#xea;" horiz-adv-x="306" 
d="M8 -126h291l-145 252z" />
    <glyph glyph-name="edieresis" unicode="&#xeb;" horiz-adv-x="306" 
d="M155 65l91 -160h-185zM8 -126h291l-145 252z" />
    <glyph glyph-name="igrave" unicode="&#xec;" horiz-adv-x="306" 
d="M299 126h-291l146 -252z" />
    <glyph glyph-name="iacute" unicode="&#xed;" horiz-adv-x="306" 
d="M153 -65l-92 160h185zM299 126h-291l146 -252z" />
    <glyph glyph-name="icircumflex" unicode="&#xee;" horiz-adv-x="167" 
d="M128 560v-48h-83v-464h83v-48h-128v560h128z" />
    <glyph glyph-name="idieresis" unicode="&#xef;" horiz-adv-x="167" 
d="M41 560v-48h83v-464h-83v-48h128v560h-128z" />
    <glyph glyph-name="eth" unicode="&#xf0;" horiz-adv-x="232" 
d="M233 379l-215 -78q-18 -6 -18 -20.5t18 -20.5q108 -39 215 -78v41l-182 58l182 57v41z" />
    <glyph glyph-name="ntilde" unicode="&#xf1;" horiz-adv-x="232" 
d="M0 379l215 -78q18 -6 18 -20.5t-18 -20.5q-108 -39 -215 -78v41l182 58l-182 57v41z" />
    <glyph glyph-name="ograve" unicode="&#xf2;" horiz-adv-x="165" 
d="M97.0957 -2.38184l-25.1377 3.01367q-79.7949 94.9365 -69.7461 119.351q7.36426 16.3018 51.0635 37.5361q43.6992 21.2354 47.1846 34.3818q4.25 19.1826 -4.41211 35.8545q-3.15527 3.87891 -26.1992 29.9932l25.0986 -2.01465q36.8193 -45.5879 45.2471 -56.2656
q29.6279 -40.8652 23.3027 -58.1279q-7.36523 -16.3027 -52.1025 -36.5762q-44.7373 -20.2754 -48.2236 -33.4229q-5.20898 -20.2197 5.53027 -38.8115q3.2334 -5.87793 28.3945 -34.9111z" />
    <glyph glyph-name="oacute" unicode="&#xf3;" 
d="M65 0v819h384v-819h-384zM128 65h256v691h-256v-691z" />
    <glyph glyph-name="ocircumflex" unicode="&#xf4;" 
d="M65 0v819h384v-819h-384zM128 65h256v691h-256v-691z" />
    <glyph glyph-name="otilde" unicode="&#xf5;" 
d="M65 0v819h384v-819h-384zM128 65h256v691h-256v-691z" />
    <glyph glyph-name="odieresis" unicode="&#xf6;" 
d="M65 0v819h384v-819h-384zM128 65h256v691h-256v-691z" />
    <glyph glyph-name="divide" unicode="&#xf7;" 
d="M65 0v819h384v-819h-384zM128 65h256v691h-256v-691z" />
    <glyph glyph-name="oslash" unicode="&#xf8;" 
d="M65 0v819h384v-819h-384zM128 65h256v691h-256v-691z" />
    <glyph glyph-name="ugrave" unicode="&#xf9;" 
d="M65 0v819h384v-819h-384zM128 65h256v691h-256v-691z" />
    <glyph glyph-name="uacute" unicode="&#xfa;" 
d="M65 0v819h384v-819h-384zM128 65h256v691h-256v-691z" />
    <glyph glyph-name="ucircumflex" unicode="&#xfb;" 
d="M65 0v819h384v-819h-384zM128 65h256v691h-256v-691z" />
    <glyph glyph-name="udieresis" unicode="&#xfc;" 
d="M65 0v819h384v-819h-384zM128 65h256v691h-256v-691z" />
    <glyph glyph-name="yacute" unicode="&#xfd;" 
d="M65 0v819h384v-819h-384zM128 65h256v691h-256v-691z" />
    <glyph glyph-name="thorn" unicode="&#xfe;" 
d="M65 0v819h384v-819h-384zM128 65h256v691h-256v-691z" />
    <glyph glyph-name="ydieresis" unicode="&#xff;" 
d="M65 0v819h384v-819h-384zM128 65h256v691h-256v-691z" />
  </font>
</defs>
</svg>
